<?xml version="1.0" encoding="iso-8859-1"?>
<!-- Generator: Adobe Illustrator 18.0.0, SVG Export Plug-In . SVG Version: 6.00 Build 0)  -->
<!DOCTYPE svg PUBLIC "-//W3C//DTD SVG 1.1//EN" "http://www.w3.org/Graphics/SVG/1.1/DTD/svg11.dtd">
<svg version="1.1" xmlns="http://www.w3.org/2000/svg" xmlns:xlink="http://www.w3.org/1999/xlink" x="0px" y="0px"
	 viewBox="0 0 444 444" style="enable-background:new 0 0 444 444;" xml:space="preserve">
<g id="repere1" style="display:none;">
</g>
<g id="repere2">
	<g id="horizontal">
	</g>
	<g id="vertical">
	</g>
</g>
<g id="vis_complete" style="display:none;">
	<g id="vis" style="display:inline;">
		<g>
			<path style="fill:#CCCCCC;" d="M222,443c-59.031,0-114.529-22.988-156.271-64.729S1,281.031,1,222S23.988,107.471,65.729,65.729
				S162.969,1,222,1s114.529,22.988,156.271,64.729S443,162.969,443,222s-22.988,114.529-64.729,156.271S281.031,443,222,443z"/>
			<path d="M222,2c121.503,0,220,98.497,220,220s-98.497,220-220,220S2,343.503,2,222S100.497,2,222,2 M222,0
				c-29.969,0-59.042,5.87-86.413,17.447C109.151,28.628,85.41,44.635,65.022,65.022c-20.387,20.387-36.394,44.129-47.576,70.565
				C5.87,162.958,0,192.031,0,222s5.87,59.042,17.447,86.413c11.181,26.436,27.188,50.177,47.576,70.565
				c20.387,20.387,44.129,36.394,70.565,47.576C162.958,438.13,192.031,444,222,444s59.042-5.87,86.413-17.447
				c26.436-11.181,50.177-27.188,70.565-47.576c20.387-20.388,36.394-44.129,47.576-70.565C438.13,281.042,444,251.969,444,222
				s-5.87-59.042-17.447-86.413c-11.181-26.436-27.188-50.177-47.576-70.565c-20.388-20.387-44.129-36.394-70.565-47.576
				C281.042,5.87,251.969,0,222,0L222,0z"/>
		</g>
		<g>
			<linearGradient id="SVGID_1_" gradientUnits="userSpaceOnUse" x1="75.344" y1="75.344" x2="368.656" y2="368.656">
				<stop  offset="0" style="stop-color:#B3B3B3"/>
				<stop  offset="1" style="stop-color:#333333"/>
			</linearGradient>
			<path style="fill:url(#SVGID_1_);" d="M222,429.5c-114.416,0-207.5-93.084-207.5-207.5S107.584,14.5,222,14.5
				S429.5,107.584,429.5,222S336.416,429.5,222,429.5z"/>
			<path d="M222,15c114.323,0,207,92.677,207,207s-92.677,207-207,207S15,336.323,15,222S107.677,15,222,15 M222,14
				c-28.079,0-55.319,5.5-80.963,16.346C116.268,40.822,94.024,55.82,74.922,74.922s-34.099,41.346-44.576,66.115
				C19.5,166.681,14,193.921,14,222s5.5,55.319,16.346,80.963c10.476,24.769,25.474,47.013,44.576,66.115
				s41.346,34.099,66.115,44.576C166.681,424.5,193.921,430,222,430c28.079,0,55.319-5.5,80.963-16.346
				c24.769-10.476,47.013-25.474,66.115-44.576s34.099-41.346,44.576-66.115C424.5,277.319,430,250.079,430,222
				s-5.5-55.319-16.346-80.963c-10.476-24.769-25.474-47.013-44.576-66.115s-41.346-34.099-66.115-44.576
				C277.319,19.5,250.079,14,222,14L222,14z"/>
		</g>
		<g>
			<path style="fill:#999999;" d="M222,48c96.098,0,174,77.902,174,174s-77.902,174-174,174S48,318.098,48,222S125.902,48,222,48
				 M222,47c-23.624,0-46.543,4.627-68.118,13.753c-20.839,8.814-39.554,21.432-55.625,37.504s-28.689,34.786-37.504,55.625
				C51.627,175.457,47,198.376,47,222s4.627,46.543,13.753,68.118c8.814,20.839,21.432,39.554,37.504,55.625
				c16.071,16.071,34.786,28.689,55.625,37.504C175.457,392.373,198.376,397,222,397c23.624,0,46.543-4.627,68.118-13.753
				c20.839-8.814,39.554-21.432,55.625-37.504c16.071-16.071,28.689-34.786,37.504-55.625C392.373,268.543,397,245.624,397,222
				s-4.627-46.543-13.753-68.118c-8.814-20.839-21.432-39.554-37.504-55.625c-16.071-16.071-34.786-28.689-55.625-37.504
				C268.543,51.627,245.624,47,222,47L222,47z"/>
		</g>
		<g>
			<path style="fill:#666666;" d="M222,51.592c94.114,0,170.409,76.294,170.409,170.408S316.114,392.409,222,392.409
				S51.591,316.114,51.591,222S127.886,51.592,222,51.592 M222,50.592c-45.785,0-88.829,17.83-121.204,50.204
				S50.591,176.215,50.591,222s17.83,88.829,50.204,121.204S176.215,393.409,222,393.409s88.829-17.83,121.204-50.204
				c32.375-32.375,50.204-75.419,50.204-121.204s-17.83-88.829-50.204-121.204C310.829,68.421,267.785,50.592,222,50.592L222,50.592
				z"/>
		</g>
		<g>
			<path style="fill:#808080;" d="M222,74c81.738,0,148,66.262,148,148s-66.262,148-148,148S74,303.738,74,222S140.262,74,222,74
				 M222,73c-39.799,0-77.216,15.499-105.359,43.641C88.499,144.784,73,182.201,73,222s15.499,77.216,43.641,105.359
				C144.784,355.501,182.201,371,222,371s77.217-15.499,105.359-43.641C355.501,299.216,371,261.799,371,222
				s-15.499-77.216-43.641-105.359C299.217,88.499,261.799,73,222,73L222,73z"/>
		</g>
		<g>
			<path style="fill:#666666;" d="M222,118c57.438,0,104,46.562,104,104s-46.562,104-104,104s-104-46.562-104-104
				S164.562,118,222,118 M222,117c-57.897,0-105,47.103-105,105s47.103,105,105,105s105-47.103,105-105S279.897,117,222,117L222,117
				z"/>
		</g>
		<g>
			<path style="fill:#666666;" d="M222,140c45.287,0,82,36.713,82,82s-36.713,82-82,82s-82-36.713-82-82S176.713,140,222,140
				 M222,139c-45.766,0-83,37.234-83,83s37.234,83,83,83s83-37.234,83-83S267.766,139,222,139L222,139z"/>
		</g>
	</g>
	<g id="fente" style="display:inline;">
		<defs>
			<circle id="SVGID_2_" cx="222" cy="222" r="220"/>
		</defs>
		<clipPath id="SVGID_3_">
			<use xlink:href="#SVGID_2_"  style="overflow:visible;"/>
		</clipPath>
		<linearGradient id="SVGID_4_" gradientUnits="userSpaceOnUse" x1="246.7487" y1="246.7487" x2="197.2513" y2="197.2513">
			<stop  offset="0" style="stop-color:#666666"/>
			<stop  offset="1" style="stop-color:#333333"/>
		</linearGradient>
		<polygon style="clip-path:url(#SVGID_3_);fill:url(#SVGID_4_);stroke:#000000;stroke-miterlimit:10;" points="361.815,32.688 
			32.688,361.815 82.185,411.312 411.312,82.185 		"/>
		
			<line style="clip-path:url(#SVGID_3_);fill:none;stroke:#333333;stroke-width:0.5;stroke-miterlimit:10;" x1="372.064" y1="42.937" x2="42.937" y2="372.064"/>
		
			<line style="clip-path:url(#SVGID_3_);fill:none;stroke:#4D4D4D;stroke-width:0.5;stroke-miterlimit:10;" x1="382.064" y1="52.937" x2="52.937" y2="382.064"/>
		
			<line style="clip-path:url(#SVGID_3_);fill:none;stroke:#808080;stroke-width:0.5;stroke-miterlimit:10;" x1="400.064" y1="69.937" x2="70.937" y2="399.064"/>
		
			<line style="clip-path:url(#SVGID_3_);fill:none;stroke:#666666;stroke-width:0.5;stroke-miterlimit:10;" x1="402.064" y1="72.937" x2="72.937" y2="402.064"/>
	</g>
</g>
<g id="vis_complete_1">
	<g id="vis_-_copie">
		<g>
			<path style="fill:#CCCCCC;" d="M74,147c-40.252,0-73-32.748-73-73S33.748,1,74,1s73,32.748,73,73S114.252,147,74,147z"/>
			<path d="M74,2c39.701,0,72,32.299,72,72s-32.299,72-72,72S2,113.701,2,74S34.299,2,74,2 M74,0C33.131,0,0,33.131,0,74
				s33.131,74,74,74s74-33.131,74-74S114.869,0,74,0L74,0z"/>
		</g>
		<g>
			<linearGradient id="SVGID_5_" gradientUnits="userSpaceOnUse" x1="25.1423" y1="25.1423" x2="122.8577" y2="122.8577">
				<stop  offset="0" style="stop-color:#B3B3B3"/>
				<stop  offset="1" style="stop-color:#333333"/>
			</linearGradient>
			<path style="fill:url(#SVGID_5_);" d="M74,143.127c-38.117,0-69.127-31.01-69.127-69.127S35.883,4.873,74,4.873
				S143.127,35.883,143.127,74S112.117,143.127,74,143.127z"/>
			<path d="M74,5.373c37.841,0,68.627,30.786,68.627,68.627S111.841,142.627,74,142.627S5.373,111.841,5.373,74
				S36.159,5.373,74,5.373 M74,4.373C35.546,4.373,4.373,35.546,4.373,74S35.546,143.627,74,143.627S143.627,112.454,143.627,74
				S112.454,4.373,74,4.373L74,4.373z"/>
		</g>
		<g>
			<path style="fill:#999999;" d="M74,16.473c31.721,0,57.527,25.807,57.527,57.527S105.721,131.527,74,131.527
				S16.473,105.721,16.473,74S42.279,16.473,74,16.473 M74,15.473c-32.324,0-58.527,26.204-58.527,58.527S41.676,132.527,74,132.527
				S132.527,106.324,132.527,74S106.324,15.473,74,15.473L74,15.473z"/>
		</g>
		<g>
			<path style="fill:#666666;" d="M74,17.681c31.055,0,56.319,25.265,56.319,56.319S105.055,130.319,74,130.319
				S17.681,105.055,17.681,74S42.945,17.681,74,17.681 M74,16.681c-31.657,0-57.319,25.663-57.319,57.319S42.343,131.319,74,131.319
				S131.319,105.657,131.319,74S105.657,16.681,74,16.681L74,16.681z"/>
		</g>
		<g>
			<path style="fill:#808080;" d="M74,25.218c26.898,0,48.782,21.883,48.782,48.782S100.898,122.782,74,122.782
				c-26.898,0-48.782-21.883-48.782-48.782S47.102,25.218,74,25.218 M74,24.218c-27.494,0-49.782,22.288-49.782,49.782
				S46.506,123.782,74,123.782c27.494,0,49.782-22.288,49.782-49.782S101.494,24.218,74,24.218L74,24.218z"/>
		</g>
		<g>
			<path style="fill:#666666;" d="M74,40.018c18.738,0,33.982,15.244,33.982,33.982S92.738,107.982,74,107.982
				S40.018,92.738,40.018,74S55.262,40.018,74,40.018 M74,39.018C54.68,39.018,39.018,54.68,39.018,74S54.68,108.982,74,108.982
				c19.32,0,34.982-15.662,34.982-34.982S93.32,39.018,74,39.018L74,39.018z"/>
		</g>
		<g>
			<path style="fill:#666666;" d="M74,47.418c14.657,0,26.582,11.925,26.582,26.582S88.657,100.582,74,100.582
				c-14.657,0-26.582-11.925-26.582-26.582S59.343,47.418,74,47.418 M74,46.418c-15.233,0-27.582,12.349-27.582,27.582
				S58.767,101.582,74,101.582c15.233,0,27.582-12.349,27.582-27.582S89.233,46.418,74,46.418L74,46.418z"/>
		</g>
	</g>
	<g id="fente_-_copie">
		<defs>
			<circle id="SVGID_6_" cx="74" cy="74" r="74"/>
		</defs>
		<clipPath id="SVGID_7_">
			<use xlink:href="#SVGID_6_"  style="overflow:visible;"/>
		</clipPath>
		<g style="clip-path:url(#SVGID_7_);">
			<linearGradient id="SVGID_8_" gradientUnits="userSpaceOnUse" x1="81.9709" y1="81.9709" x2="66.0291" y2="66.0291">
				<stop  offset="0" style="stop-color:#666666"/>
				<stop  offset="1" style="stop-color:#333333"/>
			</linearGradient>
			<polygon style="fill:url(#SVGID_8_);" points="11.029,121.029 121.029,11.029 136.971,26.971 26.971,136.971 			"/>
			<path d="M121.029,11.736l15.235,15.235L26.971,136.264l-15.235-15.235L121.029,11.736 M121.029,10.322L10.322,121.029
				l16.649,16.649L137.678,26.971L121.029,10.322L121.029,10.322z"/>
		</g>
		
			<line style="clip-path:url(#SVGID_7_);fill:none;stroke:#333333;stroke-width:0.5;stroke-miterlimit:10;" x1="124.476" y1="13.77" x2="13.77" y2="124.476"/>
		
			<line style="clip-path:url(#SVGID_7_);fill:none;stroke:#4D4D4D;stroke-width:0.5;stroke-miterlimit:10;" x1="127.84" y1="17.133" x2="17.133" y2="127.84"/>
		
			<line style="clip-path:url(#SVGID_7_);fill:none;stroke:#808080;stroke-width:0.5;stroke-miterlimit:10;" x1="133.894" y1="22.851" x2="23.188" y2="133.558"/>
		
			<line style="clip-path:url(#SVGID_7_);fill:none;stroke:#666666;stroke-width:0.5;stroke-miterlimit:10;" x1="134.567" y1="23.86" x2="23.86" y2="134.567"/>
	</g>
</g>
<g id="vis_complete_2">
	<g id="vis_-_copie_2">
		<g>
			<path style="fill:#CCCCCC;" d="M222,147c-40.252,0-73-32.748-73-73s32.748-73,73-73c40.252,0,73,32.748,73,73
				S262.252,147,222,147z"/>
			<path d="M222,2c39.701,0,72,32.299,72,72s-32.299,72-72,72s-72-32.299-72-72S182.299,2,222,2 M222,0c-40.869,0-74,33.131-74,74
				s33.131,74,74,74s74-33.131,74-74S262.869,0,222,0L222,0z"/>
		</g>
		<g>
			<linearGradient id="SVGID_9_" gradientUnits="userSpaceOnUse" x1="173.1423" y1="25.1424" x2="270.8575" y2="122.8576">
				<stop  offset="0" style="stop-color:#B3B3B3"/>
				<stop  offset="1" style="stop-color:#333333"/>
			</linearGradient>
			<path style="fill:url(#SVGID_9_);" d="M222,143.127c-38.117,0-69.127-31.01-69.127-69.127S183.883,4.873,222,4.873
				S291.127,35.883,291.127,74S260.117,143.127,222,143.127z"/>
			<path d="M222,5.373c37.841,0,68.627,30.786,68.627,68.627S259.841,142.627,222,142.627S153.373,111.841,153.373,74
				S184.159,5.373,222,5.373 M222,4.373c-38.454,0-69.627,31.173-69.627,69.627s31.173,69.627,69.627,69.627
				S291.627,112.454,291.627,74S260.454,4.373,222,4.373L222,4.373z"/>
		</g>
		<g>
			<path style="fill:#999999;" d="M222,16.473c31.721,0,57.527,25.807,57.527,57.527S253.721,131.527,222,131.527
				S164.473,105.721,164.473,74S190.279,16.473,222,16.473 M222,15.473c-32.324,0-58.527,26.204-58.527,58.527
				s26.204,58.527,58.527,58.527S280.527,106.324,280.527,74S254.324,15.473,222,15.473L222,15.473z"/>
		</g>
		<g>
			<path style="fill:#666666;" d="M222,17.681c31.055,0,56.319,25.265,56.319,56.319S253.055,130.319,222,130.319
				S165.681,105.055,165.681,74S190.945,17.681,222,17.681 M222,16.681c-31.657,0-57.319,25.663-57.319,57.319
				s25.663,57.319,57.319,57.319S279.319,105.657,279.319,74S253.657,16.681,222,16.681L222,16.681z"/>
		</g>
		<g>
			<path style="fill:#808080;" d="M222,25.218c26.898,0,48.782,21.883,48.782,48.782S248.898,122.782,222,122.782
				c-26.898,0-48.782-21.883-48.782-48.782S195.102,25.218,222,25.218 M222,24.218c-27.494,0-49.782,22.288-49.782,49.782
				s22.288,49.782,49.782,49.782c27.494,0,49.782-22.288,49.782-49.782S249.494,24.218,222,24.218L222,24.218z"/>
		</g>
		<g>
			<path style="fill:#666666;" d="M222,40.018c18.738,0,33.982,15.244,33.982,33.982S240.738,107.982,222,107.982
				c-18.738,0-33.982-15.244-33.982-33.982S203.262,40.018,222,40.018 M222,39.018c-19.32,0-34.982,15.662-34.982,34.982
				c0,19.32,15.662,34.982,34.982,34.982c19.32,0,34.982-15.662,34.982-34.982C256.982,54.68,241.32,39.018,222,39.018L222,39.018z"
				/>
		</g>
		<g>
			<path style="fill:#666666;" d="M222,47.418c14.657,0,26.582,11.925,26.582,26.582S236.657,100.582,222,100.582
				c-14.657,0-26.582-11.925-26.582-26.582S207.343,47.418,222,47.418 M222,46.418c-15.233,0-27.582,12.349-27.582,27.582
				s12.349,27.582,27.582,27.582c15.233,0,27.582-12.349,27.582-27.582S237.233,46.418,222,46.418L222,46.418z"/>
		</g>
	</g>
	<g id="fente_-_copie_2">
		<defs>
			<circle id="SVGID_10_" cx="222" cy="74" r="74"/>
		</defs>
		<clipPath id="SVGID_11_">
			<use xlink:href="#SVGID_10_"  style="overflow:visible;"/>
		</clipPath>
		<g style="clip-path:url(#SVGID_11_);">
			<linearGradient id="SVGID_12_" gradientUnits="userSpaceOnUse" x1="229.9709" y1="81.9709" x2="214.0288" y2="66.0288">
				<stop  offset="0" style="stop-color:#666666"/>
				<stop  offset="1" style="stop-color:#333333"/>
			</linearGradient>
			<polygon style="fill:url(#SVGID_12_);" points="159.029,121.029 269.028,11.029 284.971,26.971 174.971,136.971 			"/>
			<path d="M269.029,11.736l15.235,15.235L174.971,136.264l-15.235-15.235L269.029,11.736 M269.029,10.322L158.322,121.029
				l16.649,16.649L285.678,26.971L269.029,10.322L269.029,10.322z"/>
		</g>
		
			<line style="clip-path:url(#SVGID_11_);fill:none;stroke:#333333;stroke-width:0.5;stroke-miterlimit:10;" x1="272.476" y1="13.77" x2="161.77" y2="124.476"/>
		
			<line style="clip-path:url(#SVGID_11_);fill:none;stroke:#4D4D4D;stroke-width:0.5;stroke-miterlimit:10;" x1="275.84" y1="17.133" x2="165.133" y2="127.84"/>
		
			<line style="clip-path:url(#SVGID_11_);fill:none;stroke:#808080;stroke-width:0.5;stroke-miterlimit:10;" x1="281.894" y1="22.851" x2="171.188" y2="133.558"/>
		
			<line style="clip-path:url(#SVGID_11_);fill:none;stroke:#666666;stroke-width:0.5;stroke-miterlimit:10;" x1="282.567" y1="23.86" x2="171.86" y2="134.567"/>
	</g>
</g>
<g id="vis_complete_3">
	<g id="vis_-_copie_3">
		<g>
			<path style="fill:#CCCCCC;" d="M370,147c-40.252,0-73-32.748-73-73s32.748-73,73-73s73,32.748,73,73S410.252,147,370,147z"/>
			<path d="M370,2c39.701,0,72,32.299,72,72s-32.299,72-72,72s-72-32.299-72-72S330.299,2,370,2 M370,0c-40.869,0-74,33.131-74,74
				s33.131,74,74,74s74-33.131,74-74S410.869,0,370,0L370,0z"/>
		</g>
		<g>
			<linearGradient id="SVGID_13_" gradientUnits="userSpaceOnUse" x1="321.1425" y1="25.1425" x2="418.8575" y2="122.8575">
				<stop  offset="0" style="stop-color:#B3B3B3"/>
				<stop  offset="1" style="stop-color:#333333"/>
			</linearGradient>
			<path style="fill:url(#SVGID_13_);" d="M370,143.127c-38.117,0-69.127-31.01-69.127-69.127S331.883,4.873,370,4.873
				S439.127,35.883,439.127,74S408.117,143.127,370,143.127z"/>
			<path d="M370,5.373c37.841,0,68.627,30.786,68.627,68.627S407.841,142.627,370,142.627S301.373,111.841,301.373,74
				S332.159,5.373,370,5.373 M370,4.373c-38.454,0-69.627,31.173-69.627,69.627s31.173,69.627,69.627,69.627
				S439.627,112.454,439.627,74S408.454,4.373,370,4.373L370,4.373z"/>
		</g>
		<g>
			<path style="fill:#999999;" d="M370,16.473c31.721,0,57.527,25.807,57.527,57.527S401.721,131.527,370,131.527
				S312.473,105.721,312.473,74S338.279,16.473,370,16.473 M370,15.473c-32.324,0-58.527,26.204-58.527,58.527
				s26.204,58.527,58.527,58.527S428.527,106.324,428.527,74S402.324,15.473,370,15.473L370,15.473z"/>
		</g>
		<g>
			<path style="fill:#666666;" d="M370,17.681c31.055,0,56.319,25.265,56.319,56.319S401.055,130.319,370,130.319
				S313.681,105.055,313.681,74S338.945,17.681,370,17.681 M370,16.681c-31.657,0-57.319,25.663-57.319,57.319
				s25.663,57.319,57.319,57.319S427.319,105.657,427.319,74S401.657,16.681,370,16.681L370,16.681z"/>
		</g>
		<g>
			<path style="fill:#808080;" d="M370,25.218c26.898,0,48.782,21.883,48.782,48.782S396.898,122.782,370,122.782
				S321.218,100.898,321.218,74S343.102,25.218,370,25.218 M370,24.218c-27.494,0-49.782,22.288-49.782,49.782
				s22.288,49.782,49.782,49.782S419.782,101.494,419.782,74S397.494,24.218,370,24.218L370,24.218z"/>
		</g>
		<g>
			<path style="fill:#666666;" d="M370,40.018c18.738,0,33.982,15.244,33.982,33.982S388.738,107.982,370,107.982
				S336.018,92.738,336.018,74S351.262,40.018,370,40.018 M370,39.018c-19.32,0-34.982,15.662-34.982,34.982
				S350.68,108.982,370,108.982S404.982,93.32,404.982,74S389.32,39.018,370,39.018L370,39.018z"/>
		</g>
		<g>
			<path style="fill:#666666;" d="M370,47.418c14.657,0,26.582,11.925,26.582,26.582S384.657,100.582,370,100.582
				c-14.657,0-26.582-11.925-26.582-26.582S355.343,47.418,370,47.418 M370,46.418c-15.233,0-27.582,12.349-27.582,27.582
				s12.349,27.582,27.582,27.582S397.582,89.233,397.582,74S385.233,46.418,370,46.418L370,46.418z"/>
		</g>
	</g>
	<g id="fente_-_copie_3">
		<defs>
			<circle id="SVGID_14_" cx="370" cy="74" r="74"/>
		</defs>
		<clipPath id="SVGID_15_">
			<use xlink:href="#SVGID_14_"  style="overflow:visible;"/>
		</clipPath>
		<g style="clip-path:url(#SVGID_15_);">
			<linearGradient id="SVGID_16_" gradientUnits="userSpaceOnUse" x1="377.9712" y1="81.9712" x2="362.0288" y2="66.0288">
				<stop  offset="0" style="stop-color:#666666"/>
				<stop  offset="1" style="stop-color:#333333"/>
			</linearGradient>
			<polygon style="fill:url(#SVGID_16_);" points="307.029,121.029 417.028,11.029 432.971,26.971 322.972,136.971 			"/>
			<path d="M417.029,11.736l15.235,15.235L322.971,136.264l-15.235-15.235L417.029,11.736 M417.029,10.322L306.322,121.029
				l16.649,16.649L433.678,26.971L417.029,10.322L417.029,10.322z"/>
		</g>
		
			<line style="clip-path:url(#SVGID_15_);fill:none;stroke:#333333;stroke-width:0.5;stroke-miterlimit:10;" x1="420.476" y1="13.77" x2="309.77" y2="124.476"/>
		
			<line style="clip-path:url(#SVGID_15_);fill:none;stroke:#4D4D4D;stroke-width:0.5;stroke-miterlimit:10;" x1="423.84" y1="17.133" x2="313.133" y2="127.84"/>
		
			<line style="clip-path:url(#SVGID_15_);fill:none;stroke:#808080;stroke-width:0.5;stroke-miterlimit:10;" x1="429.894" y1="22.851" x2="319.188" y2="133.558"/>
		
			<line style="clip-path:url(#SVGID_15_);fill:none;stroke:#666666;stroke-width:0.5;stroke-miterlimit:10;" x1="430.567" y1="23.86" x2="319.86" y2="134.567"/>
	</g>
</g>
<g id="vis_complete_4">
	<g id="vis_-_copie_5">
		<g>
			<path style="fill:#CCCCCC;" d="M74,295c-40.252,0-73-32.748-73-73c0-40.252,32.748-73,73-73s73,32.748,73,73
				C147,262.252,114.252,295,74,295z"/>
			<path d="M74,150c39.701,0,72,32.299,72,72s-32.299,72-72,72S2,261.701,2,222S34.299,150,74,150 M74,148
				c-40.869,0-74,33.131-74,74s33.131,74,74,74s74-33.131,74-74S114.869,148,74,148L74,148z"/>
		</g>
		<g>
			<linearGradient id="SVGID_17_" gradientUnits="userSpaceOnUse" x1="25.1424" y1="173.1423" x2="122.8576" y2="270.8575">
				<stop  offset="0" style="stop-color:#B3B3B3"/>
				<stop  offset="1" style="stop-color:#333333"/>
			</linearGradient>
			<path style="fill:url(#SVGID_17_);" d="M74,291.127c-38.117,0-69.127-31.01-69.127-69.127S35.883,152.873,74,152.873
				s69.127,31.01,69.127,69.127S112.117,291.127,74,291.127z"/>
			<path d="M74,153.373c37.841,0,68.627,30.786,68.627,68.627S111.841,290.627,74,290.627S5.373,259.841,5.373,222
				S36.159,153.373,74,153.373 M74,152.373c-38.454,0-69.627,31.173-69.627,69.627S35.546,291.627,74,291.627
				s69.627-31.173,69.627-69.627S112.454,152.373,74,152.373L74,152.373z"/>
		</g>
		<g>
			<path style="fill:#999999;" d="M74,164.473c31.721,0,57.527,25.807,57.527,57.527S105.721,279.527,74,279.527
				S16.473,253.721,16.473,222S42.279,164.473,74,164.473 M74,163.473c-32.324,0-58.527,26.204-58.527,58.527
				S41.676,280.527,74,280.527s58.527-26.204,58.527-58.527S106.324,163.473,74,163.473L74,163.473z"/>
		</g>
		<g>
			<path style="fill:#666666;" d="M74,165.681c31.055,0,56.319,25.265,56.319,56.319S105.055,278.319,74,278.319
				S17.681,253.055,17.681,222S42.945,165.681,74,165.681 M74,164.681c-31.657,0-57.319,25.663-57.319,57.319
				S42.343,279.319,74,279.319s57.319-25.663,57.319-57.319S105.657,164.681,74,164.681L74,164.681z"/>
		</g>
		<g>
			<path style="fill:#808080;" d="M74,173.218c26.898,0,48.782,21.883,48.782,48.782c0,26.898-21.883,48.782-48.782,48.782
				S25.218,248.898,25.218,222C25.218,195.102,47.102,173.218,74,173.218 M74,172.218c-27.494,0-49.782,22.288-49.782,49.782
				c0,27.494,22.288,49.782,49.782,49.782s49.782-22.288,49.782-49.782C123.782,194.506,101.494,172.218,74,172.218L74,172.218z"/>
		</g>
		<g>
			<path style="fill:#666666;" d="M74,188.018c18.738,0,33.982,15.244,33.982,33.982S92.738,255.982,74,255.982
				S40.018,240.738,40.018,222S55.262,188.018,74,188.018 M74,187.018c-19.32,0-34.982,15.662-34.982,34.982
				S54.68,256.982,74,256.982S108.982,241.32,108.982,222S93.32,187.018,74,187.018L74,187.018z"/>
		</g>
		<g>
			<path style="fill:#666666;" d="M74,195.418c14.657,0,26.582,11.925,26.582,26.582S88.657,248.582,74,248.582
				S47.418,236.657,47.418,222S59.343,195.418,74,195.418 M74,194.418c-15.233,0-27.582,12.349-27.582,27.582
				c0,15.233,12.349,27.582,27.582,27.582s27.582-12.349,27.582-27.582C101.582,206.767,89.233,194.418,74,194.418L74,194.418z"/>
		</g>
	</g>
	<g id="fente_-_copie_5">
		<defs>
			<circle id="SVGID_18_" cx="74" cy="222" r="74"/>
		</defs>
		<clipPath id="SVGID_19_">
			<use xlink:href="#SVGID_18_"  style="overflow:visible;"/>
		</clipPath>
		<g style="clip-path:url(#SVGID_19_);">
			<linearGradient id="SVGID_20_" gradientUnits="userSpaceOnUse" x1="81.9709" y1="229.9709" x2="66.0288" y2="214.0288">
				<stop  offset="0" style="stop-color:#666666"/>
				<stop  offset="1" style="stop-color:#333333"/>
			</linearGradient>
			<polygon style="fill:url(#SVGID_20_);" points="11.029,269.028 121.029,159.029 136.971,174.971 26.971,284.971 			"/>
			<path d="M121.029,159.736l15.235,15.235L26.971,284.264l-15.235-15.235L121.029,159.736 M121.029,158.322L10.322,269.029
				l16.649,16.649l110.706-110.706L121.029,158.322L121.029,158.322z"/>
		</g>
		
			<line style="clip-path:url(#SVGID_19_);fill:none;stroke:#333333;stroke-width:0.5;stroke-miterlimit:10;" x1="124.476" y1="161.77" x2="13.77" y2="272.476"/>
		
			<line style="clip-path:url(#SVGID_19_);fill:none;stroke:#4D4D4D;stroke-width:0.5;stroke-miterlimit:10;" x1="127.84" y1="165.133" x2="17.133" y2="275.84"/>
		
			<line style="clip-path:url(#SVGID_19_);fill:none;stroke:#808080;stroke-width:0.5;stroke-miterlimit:10;" x1="133.894" y1="170.851" x2="23.188" y2="281.558"/>
		
			<line style="clip-path:url(#SVGID_19_);fill:none;stroke:#666666;stroke-width:0.5;stroke-miterlimit:10;" x1="134.567" y1="171.86" x2="23.86" y2="282.567"/>
	</g>
</g>
<g id="vis_complete_5">
	<g id="vis_-_copie_4">
		<g>
			<path style="fill:#CCCCCC;" d="M370,295c-40.252,0-73-32.748-73-73c0-40.252,32.748-73,73-73s73,32.748,73,73
				C443,262.252,410.252,295,370,295z"/>
			<path d="M370,150c39.701,0,72,32.299,72,72s-32.299,72-72,72s-72-32.299-72-72S330.299,150,370,150 M370,148
				c-40.869,0-74,33.131-74,74s33.131,74,74,74s74-33.131,74-74S410.869,148,370,148L370,148z"/>
		</g>
		<g>
			<linearGradient id="SVGID_21_" gradientUnits="userSpaceOnUse" x1="321.1425" y1="173.1424" x2="418.8575" y2="270.8574">
				<stop  offset="0" style="stop-color:#B3B3B3"/>
				<stop  offset="1" style="stop-color:#333333"/>
			</linearGradient>
			<path style="fill:url(#SVGID_21_);" d="M370,291.127c-38.117,0-69.127-31.01-69.127-69.127s31.01-69.127,69.127-69.127
				s69.127,31.01,69.127,69.127S408.117,291.127,370,291.127z"/>
			<path d="M370,153.373c37.841,0,68.627,30.786,68.627,68.627S407.841,290.627,370,290.627S301.373,259.841,301.373,222
				S332.159,153.373,370,153.373 M370,152.373c-38.454,0-69.627,31.173-69.627,69.627s31.173,69.627,69.627,69.627
				c38.454,0,69.627-31.173,69.627-69.627S408.454,152.373,370,152.373L370,152.373z"/>
		</g>
		<g>
			<path style="fill:#999999;" d="M370,164.473c31.721,0,57.527,25.807,57.527,57.527S401.721,279.527,370,279.527
				S312.473,253.721,312.473,222S338.279,164.473,370,164.473 M370,163.473c-32.324,0-58.527,26.204-58.527,58.527
				s26.204,58.527,58.527,58.527s58.527-26.204,58.527-58.527S402.324,163.473,370,163.473L370,163.473z"/>
		</g>
		<g>
			<path style="fill:#666666;" d="M370,165.681c31.055,0,56.319,25.265,56.319,56.319S401.055,278.319,370,278.319
				S313.681,253.055,313.681,222S338.945,165.681,370,165.681 M370,164.681c-31.656,0-57.319,25.663-57.319,57.319
				s25.663,57.319,57.319,57.319c31.657,0,57.319-25.663,57.319-57.319S401.657,164.681,370,164.681L370,164.681z"/>
		</g>
		<g>
			<path style="fill:#808080;" d="M370,173.218c26.898,0,48.782,21.883,48.782,48.782S396.898,270.782,370,270.782
				S321.218,248.898,321.218,222S343.102,173.218,370,173.218 M370,172.218c-27.494,0-49.782,22.288-49.782,49.782
				s22.288,49.782,49.782,49.782c27.494,0,49.782-22.288,49.782-49.782S397.494,172.218,370,172.218L370,172.218z"/>
		</g>
		<g>
			<path style="fill:#666666;" d="M370,188.018c18.738,0,33.982,15.244,33.982,33.982S388.738,255.982,370,255.982
				S336.018,240.738,336.018,222S351.262,188.018,370,188.018 M370,187.018c-19.32,0-34.982,15.662-34.982,34.982
				S350.68,256.982,370,256.982c19.32,0,34.982-15.662,34.982-34.982S389.32,187.018,370,187.018L370,187.018z"/>
		</g>
		<g>
			<path style="fill:#666666;" d="M370,195.418c14.657,0,26.582,11.925,26.582,26.582S384.657,248.582,370,248.582
				c-14.657,0-26.582-11.925-26.582-26.582S355.343,195.418,370,195.418 M370,194.418c-15.233,0-27.582,12.349-27.582,27.582
				s12.349,27.582,27.582,27.582s27.582-12.349,27.582-27.582S385.233,194.418,370,194.418L370,194.418z"/>
		</g>
	</g>
	<g id="fente_-_copie_4">
		<defs>
			<circle id="SVGID_22_" cx="370" cy="222" r="74"/>
		</defs>
		<clipPath id="SVGID_23_">
			<use xlink:href="#SVGID_22_"  style="overflow:visible;"/>
		</clipPath>
		<g style="clip-path:url(#SVGID_23_);">
			<linearGradient id="SVGID_24_" gradientUnits="userSpaceOnUse" x1="377.9713" y1="229.9711" x2="362.0289" y2="214.0287">
				<stop  offset="0" style="stop-color:#666666"/>
				<stop  offset="1" style="stop-color:#333333"/>
			</linearGradient>
			<polygon style="fill:url(#SVGID_24_);" points="307.029,269.028 417.028,159.029 432.971,174.971 322.972,284.971 			"/>
			<path d="M417.029,159.736l15.235,15.235L322.971,284.264l-15.235-15.235L417.029,159.736 M417.029,158.322L306.322,269.029
				l16.649,16.649l110.706-110.706L417.029,158.322L417.029,158.322z"/>
		</g>
		
			<line style="clip-path:url(#SVGID_23_);fill:none;stroke:#333333;stroke-width:0.5;stroke-miterlimit:10;" x1="420.476" y1="161.77" x2="309.77" y2="272.476"/>
		
			<line style="clip-path:url(#SVGID_23_);fill:none;stroke:#4D4D4D;stroke-width:0.5;stroke-miterlimit:10;" x1="423.84" y1="165.133" x2="313.133" y2="275.84"/>
		
			<line style="clip-path:url(#SVGID_23_);fill:none;stroke:#808080;stroke-width:0.5;stroke-miterlimit:10;" x1="429.894" y1="170.851" x2="319.188" y2="281.558"/>
		
			<line style="clip-path:url(#SVGID_23_);fill:none;stroke:#666666;stroke-width:0.5;stroke-miterlimit:10;" x1="430.567" y1="171.86" x2="319.86" y2="282.567"/>
	</g>
</g>
<g id="vis_complete_6">
	<g id="vis_-_copie_8">
		<g>
			<path style="fill:#CCCCCC;" d="M74,443c-40.252,0-73-32.748-73-73s32.748-73,73-73s73,32.748,73,73S114.252,443,74,443z"/>
			<path d="M74,298c39.701,0,72,32.299,72,72s-32.299,72-72,72S2,409.701,2,370S34.299,298,74,298 M74,296
				c-40.869,0-74,33.131-74,74s33.131,74,74,74s74-33.131,74-74S114.869,296,74,296L74,296z"/>
		</g>
		<g>
			<linearGradient id="SVGID_25_" gradientUnits="userSpaceOnUse" x1="25.1425" y1="321.1425" x2="122.8575" y2="418.8575">
				<stop  offset="0" style="stop-color:#B3B3B3"/>
				<stop  offset="1" style="stop-color:#333333"/>
			</linearGradient>
			<path style="fill:url(#SVGID_25_);" d="M74,439.127c-38.117,0-69.127-31.01-69.127-69.127S35.883,300.873,74,300.873
				s69.127,31.01,69.127,69.127S112.117,439.127,74,439.127z"/>
			<path d="M74,301.373c37.841,0,68.627,30.786,68.627,68.627S111.841,438.627,74,438.627S5.373,407.841,5.373,370
				S36.159,301.373,74,301.373 M74,300.373c-38.454,0-69.627,31.173-69.627,69.627S35.546,439.627,74,439.627
				s69.627-31.173,69.627-69.627S112.454,300.373,74,300.373L74,300.373z"/>
		</g>
		<g>
			<path style="fill:#999999;" d="M74,312.473c31.721,0,57.527,25.807,57.527,57.527S105.721,427.527,74,427.527
				S16.473,401.721,16.473,370S42.279,312.473,74,312.473 M74,311.473c-32.324,0-58.527,26.204-58.527,58.527
				S41.676,428.527,74,428.527s58.527-26.203,58.527-58.527S106.324,311.473,74,311.473L74,311.473z"/>
		</g>
		<g>
			<path style="fill:#666666;" d="M74,313.681c31.055,0,56.319,25.265,56.319,56.319S105.055,426.319,74,426.319
				S17.681,401.055,17.681,370S42.945,313.681,74,313.681 M74,312.681c-31.657,0-57.319,25.663-57.319,57.319
				S42.343,427.319,74,427.319s57.319-25.663,57.319-57.319S105.657,312.681,74,312.681L74,312.681z"/>
		</g>
		<g>
			<path style="fill:#808080;" d="M74,321.218c26.898,0,48.782,21.883,48.782,48.782c0,26.898-21.883,48.782-48.782,48.782
				S25.218,396.898,25.218,370C25.218,343.102,47.102,321.218,74,321.218 M74,320.218c-27.494,0-49.782,22.288-49.782,49.782
				c0,27.494,22.288,49.782,49.782,49.782s49.782-22.288,49.782-49.782C123.782,342.506,101.494,320.218,74,320.218L74,320.218z"/>
		</g>
		<g>
			<path style="fill:#666666;" d="M74,336.018c18.738,0,33.982,15.244,33.982,33.982S92.738,403.982,74,403.982
				S40.018,388.738,40.018,370S55.262,336.018,74,336.018 M74,335.018c-19.32,0-34.982,15.662-34.982,34.982
				c0,19.32,15.662,34.982,34.982,34.982c19.32,0,34.982-15.662,34.982-34.982C108.982,350.68,93.32,335.018,74,335.018L74,335.018z
				"/>
		</g>
		<g>
			<path style="fill:#666666;" d="M74,343.418c14.657,0,26.582,11.925,26.582,26.582c0,14.657-11.925,26.582-26.582,26.582
				S47.418,384.657,47.418,370C47.418,355.343,59.343,343.418,74,343.418 M74,342.418c-15.233,0-27.582,12.349-27.582,27.582
				S58.767,397.582,74,397.582c15.233,0,27.582-12.349,27.582-27.582S89.233,342.418,74,342.418L74,342.418z"/>
		</g>
	</g>
	<g id="fente_-_copie_8">
		<defs>
			<circle id="SVGID_26_" cx="74" cy="370" r="74"/>
		</defs>
		<clipPath id="SVGID_27_">
			<use xlink:href="#SVGID_26_"  style="overflow:visible;"/>
		</clipPath>
		<g style="clip-path:url(#SVGID_27_);">
			<linearGradient id="SVGID_28_" gradientUnits="userSpaceOnUse" x1="81.9712" y1="377.9712" x2="66.0288" y2="362.0288">
				<stop  offset="0" style="stop-color:#666666"/>
				<stop  offset="1" style="stop-color:#333333"/>
			</linearGradient>
			<polygon style="fill:url(#SVGID_28_);" points="11.029,417.028 121.029,307.029 136.971,322.972 26.971,432.971 			"/>
			<path d="M121.029,307.736l15.235,15.235L26.971,432.263l-15.235-15.235L121.029,307.736 M121.029,306.322L10.322,417.029
				l16.649,16.649l110.706-110.706L121.029,306.322L121.029,306.322z"/>
		</g>
		
			<line style="clip-path:url(#SVGID_27_);fill:none;stroke:#333333;stroke-width:0.5;stroke-miterlimit:10;" x1="124.476" y1="309.77" x2="13.77" y2="420.476"/>
		
			<line style="clip-path:url(#SVGID_27_);fill:none;stroke:#4D4D4D;stroke-width:0.5;stroke-miterlimit:10;" x1="127.84" y1="313.133" x2="17.133" y2="423.84"/>
		
			<line style="clip-path:url(#SVGID_27_);fill:none;stroke:#808080;stroke-width:0.5;stroke-miterlimit:10;" x1="133.894" y1="318.851" x2="23.188" y2="429.558"/>
		
			<line style="clip-path:url(#SVGID_27_);fill:none;stroke:#666666;stroke-width:0.5;stroke-miterlimit:10;" x1="134.567" y1="319.86" x2="23.86" y2="430.567"/>
	</g>
</g>
<g id="vis_complete_7">
	<g id="vis_-_copie_7">
		<g>
			<path style="fill:#CCCCCC;" d="M222,443c-40.252,0-73-32.748-73-73s32.748-73,73-73c40.252,0,73,32.748,73,73
				S262.252,443,222,443z"/>
			<path d="M222,298c39.701,0,72,32.299,72,72s-32.299,72-72,72s-72-32.299-72-72S182.299,298,222,298 M222,296
				c-40.869,0-74,33.131-74,74s33.131,74,74,74s74-33.131,74-74S262.869,296,222,296L222,296z"/>
		</g>
		<g>
			<linearGradient id="SVGID_29_" gradientUnits="userSpaceOnUse" x1="173.1424" y1="321.1425" x2="270.8574" y2="418.8575">
				<stop  offset="0" style="stop-color:#B3B3B3"/>
				<stop  offset="1" style="stop-color:#333333"/>
			</linearGradient>
			<path style="fill:url(#SVGID_29_);" d="M222,439.127c-38.117,0-69.127-31.01-69.127-69.127s31.01-69.127,69.127-69.127
				s69.127,31.01,69.127,69.127S260.117,439.127,222,439.127z"/>
			<path d="M222,301.373c37.841,0,68.627,30.786,68.627,68.627S259.841,438.627,222,438.627S153.373,407.841,153.373,370
				S184.159,301.373,222,301.373 M222,300.373c-38.454,0-69.627,31.173-69.627,69.627s31.173,69.627,69.627,69.627
				s69.627-31.173,69.627-69.627S260.454,300.373,222,300.373L222,300.373z"/>
		</g>
		<g>
			<path style="fill:#999999;" d="M222,312.473c31.721,0,57.527,25.807,57.527,57.527S253.721,427.527,222,427.527
				S164.473,401.721,164.473,370S190.279,312.473,222,312.473 M222,311.473c-32.324,0-58.527,26.204-58.527,58.527
				s26.204,58.527,58.527,58.527s58.527-26.204,58.527-58.527S254.324,311.473,222,311.473L222,311.473z"/>
		</g>
		<g>
			<path style="fill:#666666;" d="M222,313.681c31.055,0,56.319,25.265,56.319,56.319S253.055,426.319,222,426.319
				S165.681,401.055,165.681,370S190.945,313.681,222,313.681 M222,312.681c-31.657,0-57.319,25.663-57.319,57.319
				s25.663,57.319,57.319,57.319s57.319-25.663,57.319-57.319S253.657,312.681,222,312.681L222,312.681z"/>
		</g>
		<g>
			<path style="fill:#808080;" d="M222,321.218c26.898,0,48.782,21.883,48.782,48.782c0,26.898-21.883,48.782-48.782,48.782
				c-26.898,0-48.782-21.883-48.782-48.782C173.218,343.102,195.102,321.218,222,321.218 M222,320.218
				c-27.494,0-49.782,22.288-49.782,49.782c0,27.494,22.288,49.782,49.782,49.782c27.494,0,49.782-22.288,49.782-49.782
				C271.782,342.506,249.494,320.218,222,320.218L222,320.218z"/>
		</g>
		<g>
			<path style="fill:#666666;" d="M222,336.018c18.738,0,33.982,15.244,33.982,33.982S240.738,403.982,222,403.982
				c-18.738,0-33.982-15.244-33.982-33.982S203.262,336.018,222,336.018 M222,335.018c-19.32,0-34.982,15.662-34.982,34.982
				c0,19.32,15.662,34.982,34.982,34.982c19.32,0,34.982-15.662,34.982-34.982C256.982,350.68,241.32,335.018,222,335.018
				L222,335.018z"/>
		</g>
		<g>
			<path style="fill:#666666;" d="M222,343.418c14.657,0,26.582,11.925,26.582,26.582c0,14.657-11.925,26.582-26.582,26.582
				c-14.657,0-26.582-11.925-26.582-26.582C195.418,355.343,207.343,343.418,222,343.418 M222,342.418
				c-15.233,0-27.582,12.349-27.582,27.582s12.349,27.582,27.582,27.582s27.582-12.349,27.582-27.582S237.233,342.418,222,342.418
				L222,342.418z"/>
		</g>
	</g>
	<g id="fente_-_copie_7">
		<defs>
			<circle id="SVGID_30_" cx="222" cy="370" r="74"/>
		</defs>
		<clipPath id="SVGID_31_">
			<use xlink:href="#SVGID_30_"  style="overflow:visible;"/>
		</clipPath>
		<g style="clip-path:url(#SVGID_31_);">
			<linearGradient id="SVGID_32_" gradientUnits="userSpaceOnUse" x1="229.9711" y1="377.9713" x2="214.0287" y2="362.0289">
				<stop  offset="0" style="stop-color:#666666"/>
				<stop  offset="1" style="stop-color:#333333"/>
			</linearGradient>
			<polygon style="fill:url(#SVGID_32_);" points="159.029,417.028 269.028,307.029 284.971,322.972 174.971,432.971 			"/>
			<path d="M269.029,307.736l15.235,15.235L174.971,432.263l-15.235-15.235L269.029,307.736 M269.029,306.322L158.322,417.029
				l16.649,16.649l110.706-110.706L269.029,306.322L269.029,306.322z"/>
		</g>
		
			<line style="clip-path:url(#SVGID_31_);fill:none;stroke:#333333;stroke-width:0.5;stroke-miterlimit:10;" x1="272.476" y1="309.77" x2="161.77" y2="420.476"/>
		
			<line style="clip-path:url(#SVGID_31_);fill:none;stroke:#4D4D4D;stroke-width:0.5;stroke-miterlimit:10;" x1="275.84" y1="313.133" x2="165.133" y2="423.84"/>
		
			<line style="clip-path:url(#SVGID_31_);fill:none;stroke:#808080;stroke-width:0.5;stroke-miterlimit:10;" x1="281.894" y1="318.851" x2="171.188" y2="429.558"/>
		
			<line style="clip-path:url(#SVGID_31_);fill:none;stroke:#666666;stroke-width:0.5;stroke-miterlimit:10;" x1="282.567" y1="319.86" x2="171.86" y2="430.567"/>
	</g>
</g>
<g id="vis_complete_8">
	<g id="vis_-_copie_6">
		<g>
			<path style="fill:#CCCCCC;" d="M370,443c-40.252,0-73-32.748-73-73s32.748-73,73-73s73,32.748,73,73S410.252,443,370,443z"/>
			<path d="M370,298c39.701,0,72,32.299,72,72s-32.299,72-72,72s-72-32.299-72-72S330.299,298,370,298 M370,296
				c-40.869,0-74,33.131-74,74c0,40.869,33.131,74,74,74s74-33.131,74-74C444,329.131,410.869,296,370,296L370,296z"/>
		</g>
		<g>
			<linearGradient id="SVGID_33_" gradientUnits="userSpaceOnUse" x1="321.1426" y1="321.1426" x2="418.8574" y2="418.8574">
				<stop  offset="0" style="stop-color:#B3B3B3"/>
				<stop  offset="1" style="stop-color:#333333"/>
			</linearGradient>
			<path style="fill:url(#SVGID_33_);" d="M370,439.127c-38.117,0-69.127-31.01-69.127-69.127s31.01-69.127,69.127-69.127
				s69.127,31.01,69.127,69.127S408.117,439.127,370,439.127z"/>
			<path d="M370,301.373c37.841,0,68.627,30.786,68.627,68.627S407.841,438.627,370,438.627S301.373,407.841,301.373,370
				S332.159,301.373,370,301.373 M370,300.373c-38.454,0-69.627,31.173-69.627,69.627c0,38.454,31.173,69.627,69.627,69.627
				s69.627-31.173,69.627-69.627C439.627,331.546,408.454,300.373,370,300.373L370,300.373z"/>
		</g>
		<g>
			<path style="fill:#999999;" d="M370,312.473c31.721,0,57.527,25.807,57.527,57.527S401.721,427.527,370,427.527
				S312.473,401.721,312.473,370S338.279,312.473,370,312.473 M370,311.473c-32.324,0-58.527,26.204-58.527,58.527
				c0,32.324,26.204,58.527,58.527,58.527s58.527-26.204,58.527-58.527C428.527,337.676,402.324,311.473,370,311.473L370,311.473z"
				/>
		</g>
		<g>
			<path style="fill:#666666;" d="M370,313.681c31.055,0,56.319,25.265,56.319,56.319S401.055,426.319,370,426.319
				S313.681,401.055,313.681,370S338.945,313.681,370,313.681 M370,312.681c-31.657,0-57.319,25.663-57.319,57.319
				c0,31.656,25.663,57.319,57.319,57.319s57.319-25.663,57.319-57.319C427.319,338.343,401.657,312.681,370,312.681L370,312.681z"
				/>
		</g>
		<g>
			<path style="fill:#808080;" d="M370,321.218c26.898,0,48.782,21.883,48.782,48.782c0,26.898-21.883,48.782-48.782,48.782
				S321.218,396.898,321.218,370C321.218,343.102,343.102,321.218,370,321.218 M370,320.218c-27.494,0-49.782,22.288-49.782,49.782
				c0,27.494,22.288,49.782,49.782,49.782s49.782-22.288,49.782-49.782C419.782,342.506,397.494,320.218,370,320.218L370,320.218z"
				/>
		</g>
		<g>
			<path style="fill:#666666;" d="M370,336.018c18.738,0,33.982,15.244,33.982,33.982c0,18.738-15.244,33.982-33.982,33.982
				S336.018,388.738,336.018,370C336.018,351.262,351.262,336.018,370,336.018 M370,335.018c-19.32,0-34.982,15.662-34.982,34.982
				c0,19.32,15.662,34.982,34.982,34.982S404.982,389.32,404.982,370C404.982,350.68,389.32,335.018,370,335.018L370,335.018z"/>
		</g>
		<g>
			<path style="fill:#666666;" d="M370,343.418c14.657,0,26.582,11.925,26.582,26.582c0,14.657-11.925,26.582-26.582,26.582
				c-14.657,0-26.582-11.925-26.582-26.582C343.418,355.343,355.343,343.418,370,343.418 M370,342.418
				c-15.233,0-27.582,12.349-27.582,27.582c0,15.233,12.349,27.582,27.582,27.582s27.582-12.349,27.582-27.582
				C397.582,354.767,385.233,342.418,370,342.418L370,342.418z"/>
		</g>
	</g>
	<g id="fente_-_copie_6">
		<defs>
			<circle id="SVGID_34_" cx="370" cy="370" r="74"/>
		</defs>
		<clipPath id="SVGID_35_">
			<use xlink:href="#SVGID_34_"  style="overflow:visible;"/>
		</clipPath>
		<g style="clip-path:url(#SVGID_35_);">
			<linearGradient id="SVGID_36_" gradientUnits="userSpaceOnUse" x1="377.9712" y1="377.9712" x2="362.0288" y2="362.0288">
				<stop  offset="0" style="stop-color:#666666"/>
				<stop  offset="1" style="stop-color:#333333"/>
			</linearGradient>
			<polygon style="fill:url(#SVGID_36_);" points="307.029,417.028 417.028,307.029 432.971,322.972 322.972,432.971 			"/>
			<path d="M417.029,307.736l15.235,15.235L322.971,432.263l-15.235-15.235L417.029,307.736 M417.029,306.322L306.322,417.029
				l16.649,16.649l110.706-110.706L417.029,306.322L417.029,306.322z"/>
		</g>
		
			<line style="clip-path:url(#SVGID_35_);fill:none;stroke:#333333;stroke-width:0.5;stroke-miterlimit:10;" x1="420.476" y1="309.77" x2="309.77" y2="420.476"/>
		
			<line style="clip-path:url(#SVGID_35_);fill:none;stroke:#4D4D4D;stroke-width:0.5;stroke-miterlimit:10;" x1="423.84" y1="313.133" x2="313.133" y2="423.84"/>
		
			<line style="clip-path:url(#SVGID_35_);fill:none;stroke:#808080;stroke-width:0.5;stroke-miterlimit:10;" x1="429.894" y1="318.851" x2="319.188" y2="429.558"/>
		
			<line style="clip-path:url(#SVGID_35_);fill:none;stroke:#666666;stroke-width:0.5;stroke-miterlimit:10;" x1="430.567" y1="319.86" x2="319.86" y2="430.567"/>
	</g>
</g>
</svg>
