<?xml version="1.0" encoding="iso-8859-1"?>
<!-- Generator: Adobe Illustrator 18.0.0, SVG Export Plug-In . SVG Version: 6.00 Build 0)  -->
<!DOCTYPE svg PUBLIC "-//W3C//DTD SVG 1.1//EN" "http://www.w3.org/Graphics/SVG/1.1/DTD/svg11.dtd">
<svg version="1.1" xmlns="http://www.w3.org/2000/svg" xmlns:xlink="http://www.w3.org/1999/xlink" x="0px" y="0px"
	 viewBox="0 0 494 494" style="enable-background:new 0 0 494 494;" xml:space="preserve">
<g id="repere1" style="display:none;">
</g>
<g id="repere2">
	<g id="horizontal">
	</g>
	<g id="vertical">
	</g>
</g>
<g id="vis_complete" style="display:none;">
	<g id="vis" style="display:inline;">
		<g>
			<path style="fill:#CCCCCC;" d="M247,468c-59.031,0-114.529-22.988-156.271-64.729S26,306.031,26,247
				S48.988,132.471,90.729,90.729S187.969,26,247,26s114.529,22.988,156.271,64.729S468,187.969,468,247
				s-22.988,114.529-64.729,156.271S306.031,468,247,468z"/>
			<path d="M247,27c121.503,0,220,98.497,220,220s-98.497,220-220,220S27,368.503,27,247S125.497,27,247,27 M247,25
				c-29.969,0-59.042,5.87-86.413,17.447c-26.436,11.181-50.177,27.188-70.565,47.576c-20.387,20.387-36.394,44.129-47.576,70.565
				C30.87,187.958,25,217.031,25,247s5.87,59.042,17.447,86.413c11.181,26.436,27.188,50.177,47.576,70.565
				c20.387,20.387,44.129,36.394,70.565,47.576C187.958,463.13,217.031,469,247,469s59.042-5.87,86.413-17.447
				c26.436-11.181,50.177-27.188,70.565-47.576c20.387-20.388,36.394-44.129,47.576-70.565C463.13,306.042,469,276.969,469,247
				s-5.87-59.042-17.447-86.413c-11.181-26.436-27.188-50.177-47.576-70.565c-20.388-20.387-44.129-36.394-70.565-47.576
				C306.042,30.87,276.969,25,247,25L247,25z"/>
		</g>
		<g>
			<linearGradient id="SVGID_1_" gradientUnits="userSpaceOnUse" x1="100.344" y1="100.344" x2="393.656" y2="393.656">
				<stop  offset="0" style="stop-color:#B3B3B3"/>
				<stop  offset="1" style="stop-color:#333333"/>
			</linearGradient>
			<path style="fill:url(#SVGID_1_);" d="M247,454.5c-114.416,0-207.5-93.084-207.5-207.5S132.584,39.5,247,39.5
				S454.5,132.584,454.5,247S361.416,454.5,247,454.5z"/>
			<path d="M247,40c114.323,0,207,92.677,207,207s-92.677,207-207,207S40,361.323,40,247S132.677,40,247,40 M247,39
				c-28.079,0-55.319,5.5-80.963,16.346c-24.769,10.476-47.013,25.474-66.115,44.576s-34.099,41.346-44.576,66.115
				C44.5,191.681,39,218.921,39,247s5.5,55.319,16.346,80.963c10.476,24.769,25.474,47.013,44.576,66.115
				s41.346,34.099,66.115,44.576C191.681,449.5,218.921,455,247,455c28.079,0,55.319-5.5,80.963-16.346
				c24.769-10.476,47.013-25.474,66.115-44.576s34.099-41.346,44.576-66.115C449.5,302.319,455,275.079,455,247
				s-5.5-55.319-16.346-80.963c-10.476-24.769-25.474-47.013-44.576-66.115s-41.346-34.099-66.115-44.576
				C302.319,44.5,275.079,39,247,39L247,39z"/>
		</g>
		<g>
			<path style="fill:#999999;" d="M247,73c96.098,0,174,77.902,174,174s-77.902,174-174,174S73,343.098,73,247S150.902,73,247,73
				 M247,72c-23.624,0-46.543,4.627-68.118,13.753c-20.839,8.814-39.554,21.432-55.625,37.504s-28.689,34.786-37.504,55.625
				C76.627,200.457,72,223.376,72,247s4.627,46.543,13.753,68.118c8.814,20.839,21.432,39.554,37.504,55.625
				c16.071,16.071,34.786,28.689,55.625,37.504C200.457,417.373,223.376,422,247,422c23.624,0,46.543-4.627,68.118-13.753
				c20.839-8.814,39.554-21.432,55.625-37.504c16.071-16.071,28.689-34.786,37.504-55.625C417.373,293.543,422,270.624,422,247
				s-4.627-46.543-13.753-68.118c-8.814-20.839-21.432-39.554-37.504-55.625c-16.071-16.071-34.786-28.689-55.625-37.504
				C293.543,76.627,270.624,72,247,72L247,72z"/>
		</g>
		<g>
			<path style="fill:#666666;" d="M247,76.592c94.114,0,170.409,76.294,170.409,170.408S341.114,417.409,247,417.409
				S76.591,341.114,76.591,247S152.886,76.592,247,76.592 M247,75.592c-45.785,0-88.829,17.83-121.204,50.204
				S75.591,201.215,75.591,247s17.83,88.829,50.204,121.204S201.215,418.409,247,418.409s88.829-17.83,121.204-50.204
				c32.375-32.375,50.204-75.419,50.204-121.204s-17.83-88.829-50.204-121.204C335.829,93.421,292.785,75.592,247,75.592L247,75.592
				z"/>
		</g>
		<g>
			<path style="fill:#808080;" d="M247,99c81.738,0,148,66.262,148,148s-66.262,148-148,148S99,328.738,99,247S165.262,99,247,99
				 M247,98c-39.799,0-77.216,15.499-105.359,43.641C113.499,169.784,98,207.201,98,247s15.499,77.216,43.641,105.359
				C169.784,380.501,207.201,396,247,396s77.217-15.499,105.359-43.641C380.501,324.216,396,286.799,396,247
				s-15.499-77.216-43.641-105.359C324.217,113.499,286.799,98,247,98L247,98z"/>
		</g>
		<g>
			<path style="fill:#666666;" d="M247,143c57.438,0,104,46.562,104,104s-46.562,104-104,104s-104-46.562-104-104
				S189.562,143,247,143 M247,142c-57.897,0-105,47.103-105,105s47.103,105,105,105s105-47.103,105-105S304.897,142,247,142L247,142
				z"/>
		</g>
		<g>
			<path style="fill:#666666;" d="M247,165c45.287,0,82,36.713,82,82s-36.713,82-82,82s-82-36.713-82-82S201.713,165,247,165
				 M247,164c-45.766,0-83,37.234-83,83s37.234,83,83,83s83-37.234,83-83S292.766,164,247,164L247,164z"/>
		</g>
	</g>
	<g id="fente" style="display:inline;">
		<defs>
			<circle id="SVGID_2_" cx="247" cy="247" r="220"/>
		</defs>
		<clipPath id="SVGID_3_">
			<use xlink:href="#SVGID_2_"  style="overflow:visible;"/>
		</clipPath>
		<linearGradient id="SVGID_4_" gradientUnits="userSpaceOnUse" x1="271.7487" y1="271.7487" x2="222.2513" y2="222.2513">
			<stop  offset="0" style="stop-color:#666666"/>
			<stop  offset="1" style="stop-color:#333333"/>
		</linearGradient>
		<polygon style="clip-path:url(#SVGID_3_);fill:url(#SVGID_4_);stroke:#000000;stroke-miterlimit:10;" points="386.815,57.688 
			57.688,386.815 107.185,436.312 436.312,107.185 		"/>
		
			<line style="clip-path:url(#SVGID_3_);fill:none;stroke:#333333;stroke-width:0.5;stroke-miterlimit:10;" x1="397.064" y1="67.937" x2="67.937" y2="397.064"/>
		
			<line style="clip-path:url(#SVGID_3_);fill:none;stroke:#4D4D4D;stroke-width:0.5;stroke-miterlimit:10;" x1="407.064" y1="77.937" x2="77.937" y2="407.064"/>
		
			<line style="clip-path:url(#SVGID_3_);fill:none;stroke:#808080;stroke-width:0.5;stroke-miterlimit:10;" x1="425.064" y1="94.937" x2="95.937" y2="424.064"/>
		
			<line style="clip-path:url(#SVGID_3_);fill:none;stroke:#666666;stroke-width:0.5;stroke-miterlimit:10;" x1="427.064" y1="97.937" x2="97.937" y2="427.064"/>
	</g>
</g>
<g id="vis_complete_1">
	<g id="vis_-_copie">
		<g>
			<path style="fill:#CCCCCC;" d="M99,172c-40.252,0-73-32.748-73-73s32.748-73,73-73s73,32.748,73,73S139.252,172,99,172z"/>
			<path d="M99,27c39.701,0,72,32.299,72,72s-32.299,72-72,72s-72-32.299-72-72S59.299,27,99,27 M99,25c-40.869,0-74,33.131-74,74
				s33.131,74,74,74s74-33.131,74-74S139.869,25,99,25L99,25z"/>
		</g>
		<g>
			<linearGradient id="SVGID_5_" gradientUnits="userSpaceOnUse" x1="50.1423" y1="50.1423" x2="147.8577" y2="147.8577">
				<stop  offset="0" style="stop-color:#B3B3B3"/>
				<stop  offset="1" style="stop-color:#333333"/>
			</linearGradient>
			<path style="fill:url(#SVGID_5_);" d="M99,168.127c-38.117,0-69.127-31.01-69.127-69.127S60.883,29.873,99,29.873
				S168.127,60.883,168.127,99S137.117,168.127,99,168.127z"/>
			<path d="M99,30.373c37.841,0,68.627,30.786,68.627,68.627S136.841,167.627,99,167.627S30.373,136.841,30.373,99
				S61.159,30.373,99,30.373 M99,29.373c-38.454,0-69.627,31.173-69.627,69.627S60.546,168.627,99,168.627
				S168.627,137.454,168.627,99S137.454,29.373,99,29.373L99,29.373z"/>
		</g>
		<g>
			<path style="fill:#999999;" d="M99,41.473c31.721,0,57.527,25.807,57.527,57.527S130.721,156.527,99,156.527
				S41.473,130.721,41.473,99S67.279,41.473,99,41.473 M99,40.473c-32.324,0-58.527,26.204-58.527,58.527S66.676,157.527,99,157.527
				S157.527,131.324,157.527,99S131.324,40.473,99,40.473L99,40.473z"/>
		</g>
		<g>
			<path style="fill:#666666;" d="M99,42.681c31.055,0,56.319,25.265,56.319,56.319S130.055,155.319,99,155.319
				S42.681,130.055,42.681,99S67.945,42.681,99,42.681 M99,41.681c-31.657,0-57.319,25.663-57.319,57.319S67.343,156.319,99,156.319
				S156.319,130.657,156.319,99S130.657,41.681,99,41.681L99,41.681z"/>
		</g>
		<g>
			<path style="fill:#808080;" d="M99,50.218c26.898,0,48.782,21.883,48.782,48.782S125.898,147.782,99,147.782
				c-26.898,0-48.782-21.883-48.782-48.782S72.102,50.218,99,50.218 M99,49.218c-27.494,0-49.782,22.288-49.782,49.782
				S71.506,148.782,99,148.782c27.494,0,49.782-22.288,49.782-49.782S126.494,49.218,99,49.218L99,49.218z"/>
		</g>
		<g>
			<path style="fill:#666666;" d="M99,65.018c18.738,0,33.982,15.244,33.982,33.982S117.738,132.982,99,132.982
				S65.018,117.738,65.018,99S80.262,65.018,99,65.018 M99,64.018C79.68,64.018,64.018,79.68,64.018,99S79.68,133.982,99,133.982
				c19.32,0,34.982-15.662,34.982-34.982S118.32,64.018,99,64.018L99,64.018z"/>
		</g>
		<g>
			<path style="fill:#666666;" d="M99,72.418c14.657,0,26.582,11.925,26.582,26.582S113.657,125.582,99,125.582
				c-14.657,0-26.582-11.925-26.582-26.582S84.343,72.418,99,72.418 M99,71.418c-15.233,0-27.582,12.349-27.582,27.582
				S83.767,126.582,99,126.582c15.233,0,27.582-12.349,27.582-27.582S114.233,71.418,99,71.418L99,71.418z"/>
		</g>
	</g>
	<g id="fente_-_copie">
		<defs>
			<circle id="SVGID_6_" cx="99" cy="99" r="74"/>
		</defs>
		<clipPath id="SVGID_7_">
			<use xlink:href="#SVGID_6_"  style="overflow:visible;"/>
		</clipPath>
		<g style="clip-path:url(#SVGID_7_);">
			<linearGradient id="SVGID_8_" gradientUnits="userSpaceOnUse" x1="106.9709" y1="106.9709" x2="91.0291" y2="91.0291">
				<stop  offset="0" style="stop-color:#666666"/>
				<stop  offset="1" style="stop-color:#333333"/>
			</linearGradient>
			<polygon style="fill:url(#SVGID_8_);" points="36.029,146.029 146.029,36.029 161.971,51.971 51.971,161.971 			"/>
			<path d="M146.029,36.736l15.235,15.235L51.971,161.264l-15.235-15.235L146.029,36.736 M146.029,35.322L35.322,146.029
				l16.649,16.649L162.678,51.971L146.029,35.322L146.029,35.322z"/>
		</g>
		
			<line style="clip-path:url(#SVGID_7_);fill:none;stroke:#333333;stroke-width:0.5;stroke-miterlimit:10;" x1="149.476" y1="38.77" x2="38.77" y2="149.476"/>
		
			<line style="clip-path:url(#SVGID_7_);fill:none;stroke:#4D4D4D;stroke-width:0.5;stroke-miterlimit:10;" x1="152.84" y1="42.133" x2="42.133" y2="152.84"/>
		
			<line style="clip-path:url(#SVGID_7_);fill:none;stroke:#808080;stroke-width:0.5;stroke-miterlimit:10;" x1="158.894" y1="47.851" x2="48.188" y2="158.558"/>
		
			<line style="clip-path:url(#SVGID_7_);fill:none;stroke:#666666;stroke-width:0.5;stroke-miterlimit:10;" x1="159.567" y1="48.86" x2="48.86" y2="159.567"/>
	</g>
</g>
<g id="vis_complete_2">
	<g id="vis_-_copie_2">
		<g>
			<path style="fill:#CCCCCC;" d="M247,172c-40.252,0-73-32.748-73-73s32.748-73,73-73c40.252,0,73,32.748,73,73
				S287.252,172,247,172z"/>
			<path d="M247,27c39.701,0,72,32.299,72,72s-32.299,72-72,72s-72-32.299-72-72S207.299,27,247,27 M247,25
				c-40.869,0-74,33.131-74,74s33.131,74,74,74s74-33.131,74-74S287.869,25,247,25L247,25z"/>
		</g>
		<g>
			<linearGradient id="SVGID_9_" gradientUnits="userSpaceOnUse" x1="198.1423" y1="50.1424" x2="295.8575" y2="147.8576">
				<stop  offset="0" style="stop-color:#B3B3B3"/>
				<stop  offset="1" style="stop-color:#333333"/>
			</linearGradient>
			<path style="fill:url(#SVGID_9_);" d="M247,168.127c-38.117,0-69.127-31.01-69.127-69.127S208.883,29.873,247,29.873
				S316.127,60.883,316.127,99S285.117,168.127,247,168.127z"/>
			<path d="M247,30.373c37.841,0,68.627,30.786,68.627,68.627S284.841,167.627,247,167.627S178.373,136.841,178.373,99
				S209.159,30.373,247,30.373 M247,29.373c-38.454,0-69.627,31.173-69.627,69.627s31.173,69.627,69.627,69.627
				S316.627,137.454,316.627,99S285.454,29.373,247,29.373L247,29.373z"/>
		</g>
		<g>
			<path style="fill:#999999;" d="M247,41.473c31.721,0,57.527,25.807,57.527,57.527S278.721,156.527,247,156.527
				S189.473,130.721,189.473,99S215.279,41.473,247,41.473 M247,40.473c-32.324,0-58.527,26.204-58.527,58.527
				s26.204,58.527,58.527,58.527S305.527,131.324,305.527,99S279.324,40.473,247,40.473L247,40.473z"/>
		</g>
		<g>
			<path style="fill:#666666;" d="M247,42.681c31.055,0,56.319,25.265,56.319,56.319S278.055,155.319,247,155.319
				S190.681,130.055,190.681,99S215.945,42.681,247,42.681 M247,41.681c-31.657,0-57.319,25.663-57.319,57.319
				s25.663,57.319,57.319,57.319S304.319,130.657,304.319,99S278.657,41.681,247,41.681L247,41.681z"/>
		</g>
		<g>
			<path style="fill:#808080;" d="M247,50.218c26.898,0,48.782,21.883,48.782,48.782S273.898,147.782,247,147.782
				c-26.898,0-48.782-21.883-48.782-48.782S220.102,50.218,247,50.218 M247,49.218c-27.494,0-49.782,22.288-49.782,49.782
				s22.288,49.782,49.782,49.782c27.494,0,49.782-22.288,49.782-49.782S274.494,49.218,247,49.218L247,49.218z"/>
		</g>
		<g>
			<path style="fill:#666666;" d="M247,65.018c18.738,0,33.982,15.244,33.982,33.982S265.738,132.982,247,132.982
				c-18.738,0-33.982-15.244-33.982-33.982S228.262,65.018,247,65.018 M247,64.018c-19.32,0-34.982,15.662-34.982,34.982
				c0,19.32,15.662,34.982,34.982,34.982c19.32,0,34.982-15.662,34.982-34.982C281.982,79.68,266.32,64.018,247,64.018L247,64.018z"
				/>
		</g>
		<g>
			<path style="fill:#666666;" d="M247,72.418c14.657,0,26.582,11.925,26.582,26.582S261.657,125.582,247,125.582
				c-14.657,0-26.582-11.925-26.582-26.582S232.343,72.418,247,72.418 M247,71.418c-15.233,0-27.582,12.349-27.582,27.582
				s12.349,27.582,27.582,27.582c15.233,0,27.582-12.349,27.582-27.582S262.233,71.418,247,71.418L247,71.418z"/>
		</g>
	</g>
	<g id="fente_-_copie_2">
		<defs>
			<circle id="SVGID_10_" cx="247" cy="99" r="74"/>
		</defs>
		<clipPath id="SVGID_11_">
			<use xlink:href="#SVGID_10_"  style="overflow:visible;"/>
		</clipPath>
		<g style="clip-path:url(#SVGID_11_);">
			<linearGradient id="SVGID_12_" gradientUnits="userSpaceOnUse" x1="254.9709" y1="106.9709" x2="239.0288" y2="91.0288">
				<stop  offset="0" style="stop-color:#666666"/>
				<stop  offset="1" style="stop-color:#333333"/>
			</linearGradient>
			<polygon style="fill:url(#SVGID_12_);" points="184.029,146.029 294.028,36.029 309.971,51.971 199.971,161.971 			"/>
			<path d="M294.029,36.736l15.235,15.235L199.971,161.264l-15.235-15.235L294.029,36.736 M294.029,35.322L183.322,146.029
				l16.649,16.649L310.678,51.971L294.029,35.322L294.029,35.322z"/>
		</g>
		
			<line style="clip-path:url(#SVGID_11_);fill:none;stroke:#333333;stroke-width:0.5;stroke-miterlimit:10;" x1="297.476" y1="38.77" x2="186.77" y2="149.476"/>
		
			<line style="clip-path:url(#SVGID_11_);fill:none;stroke:#4D4D4D;stroke-width:0.5;stroke-miterlimit:10;" x1="300.84" y1="42.133" x2="190.133" y2="152.84"/>
		
			<line style="clip-path:url(#SVGID_11_);fill:none;stroke:#808080;stroke-width:0.5;stroke-miterlimit:10;" x1="306.894" y1="47.851" x2="196.188" y2="158.558"/>
		
			<line style="clip-path:url(#SVGID_11_);fill:none;stroke:#666666;stroke-width:0.5;stroke-miterlimit:10;" x1="307.567" y1="48.86" x2="196.86" y2="159.567"/>
	</g>
</g>
<g id="vis_complete_3">
	<g id="vis_-_copie_3">
		<g>
			<path style="fill:#CCCCCC;" d="M395,172c-40.252,0-73-32.748-73-73s32.748-73,73-73s73,32.748,73,73S435.252,172,395,172z"/>
			<path d="M395,27c39.701,0,72,32.299,72,72s-32.299,72-72,72s-72-32.299-72-72S355.299,27,395,27 M395,25
				c-40.869,0-74,33.131-74,74s33.131,74,74,74s74-33.131,74-74S435.869,25,395,25L395,25z"/>
		</g>
		<g>
			<linearGradient id="SVGID_13_" gradientUnits="userSpaceOnUse" x1="346.1425" y1="50.1425" x2="443.8575" y2="147.8575">
				<stop  offset="0" style="stop-color:#B3B3B3"/>
				<stop  offset="1" style="stop-color:#333333"/>
			</linearGradient>
			<path style="fill:url(#SVGID_13_);" d="M395,168.127c-38.117,0-69.127-31.01-69.127-69.127S356.883,29.873,395,29.873
				S464.127,60.883,464.127,99S433.117,168.127,395,168.127z"/>
			<path d="M395,30.373c37.841,0,68.627,30.786,68.627,68.627S432.841,167.627,395,167.627S326.373,136.841,326.373,99
				S357.159,30.373,395,30.373 M395,29.373c-38.454,0-69.627,31.173-69.627,69.627s31.173,69.627,69.627,69.627
				S464.627,137.454,464.627,99S433.454,29.373,395,29.373L395,29.373z"/>
		</g>
		<g>
			<path style="fill:#999999;" d="M395,41.473c31.721,0,57.527,25.807,57.527,57.527S426.721,156.527,395,156.527
				S337.473,130.721,337.473,99S363.279,41.473,395,41.473 M395,40.473c-32.324,0-58.527,26.204-58.527,58.527
				s26.204,58.527,58.527,58.527S453.527,131.324,453.527,99S427.324,40.473,395,40.473L395,40.473z"/>
		</g>
		<g>
			<path style="fill:#666666;" d="M395,42.681c31.055,0,56.319,25.265,56.319,56.319S426.055,155.319,395,155.319
				S338.681,130.055,338.681,99S363.945,42.681,395,42.681 M395,41.681c-31.657,0-57.319,25.663-57.319,57.319
				s25.663,57.319,57.319,57.319S452.319,130.657,452.319,99S426.657,41.681,395,41.681L395,41.681z"/>
		</g>
		<g>
			<path style="fill:#808080;" d="M395,50.218c26.898,0,48.782,21.883,48.782,48.782S421.898,147.782,395,147.782
				S346.218,125.898,346.218,99S368.102,50.218,395,50.218 M395,49.218c-27.494,0-49.782,22.288-49.782,49.782
				s22.288,49.782,49.782,49.782S444.782,126.494,444.782,99S422.494,49.218,395,49.218L395,49.218z"/>
		</g>
		<g>
			<path style="fill:#666666;" d="M395,65.018c18.738,0,33.982,15.244,33.982,33.982S413.738,132.982,395,132.982
				S361.018,117.738,361.018,99S376.262,65.018,395,65.018 M395,64.018c-19.32,0-34.982,15.662-34.982,34.982
				S375.68,133.982,395,133.982S429.982,118.32,429.982,99S414.32,64.018,395,64.018L395,64.018z"/>
		</g>
		<g>
			<path style="fill:#666666;" d="M395,72.418c14.657,0,26.582,11.925,26.582,26.582S409.657,125.582,395,125.582
				c-14.657,0-26.582-11.925-26.582-26.582S380.343,72.418,395,72.418 M395,71.418c-15.233,0-27.582,12.349-27.582,27.582
				s12.349,27.582,27.582,27.582S422.582,114.233,422.582,99S410.233,71.418,395,71.418L395,71.418z"/>
		</g>
	</g>
	<g id="fente_-_copie_3">
		<defs>
			<circle id="SVGID_14_" cx="395" cy="99" r="74"/>
		</defs>
		<clipPath id="SVGID_15_">
			<use xlink:href="#SVGID_14_"  style="overflow:visible;"/>
		</clipPath>
		<g style="clip-path:url(#SVGID_15_);">
			<linearGradient id="SVGID_16_" gradientUnits="userSpaceOnUse" x1="402.9712" y1="106.9712" x2="387.0288" y2="91.0288">
				<stop  offset="0" style="stop-color:#666666"/>
				<stop  offset="1" style="stop-color:#333333"/>
			</linearGradient>
			<polygon style="fill:url(#SVGID_16_);" points="332.029,146.029 442.028,36.029 457.971,51.971 347.972,161.971 			"/>
			<path d="M442.029,36.736l15.235,15.235L347.971,161.264l-15.235-15.235L442.029,36.736 M442.029,35.322L331.322,146.029
				l16.649,16.649L458.678,51.971L442.029,35.322L442.029,35.322z"/>
		</g>
		
			<line style="clip-path:url(#SVGID_15_);fill:none;stroke:#333333;stroke-width:0.5;stroke-miterlimit:10;" x1="445.476" y1="38.77" x2="334.77" y2="149.476"/>
		
			<line style="clip-path:url(#SVGID_15_);fill:none;stroke:#4D4D4D;stroke-width:0.5;stroke-miterlimit:10;" x1="448.84" y1="42.133" x2="338.133" y2="152.84"/>
		
			<line style="clip-path:url(#SVGID_15_);fill:none;stroke:#808080;stroke-width:0.5;stroke-miterlimit:10;" x1="454.894" y1="47.851" x2="344.188" y2="158.558"/>
		
			<line style="clip-path:url(#SVGID_15_);fill:none;stroke:#666666;stroke-width:0.5;stroke-miterlimit:10;" x1="455.567" y1="48.86" x2="344.86" y2="159.567"/>
	</g>
</g>
<g id="vis_complete_4">
	<g id="vis_-_copie_5">
		<g>
			<path style="fill:#CCCCCC;" d="M99,320c-40.252,0-73-32.748-73-73c0-40.252,32.748-73,73-73s73,32.748,73,73
				C172,287.252,139.252,320,99,320z"/>
			<path d="M99,175c39.701,0,72,32.299,72,72s-32.299,72-72,72s-72-32.299-72-72S59.299,175,99,175 M99,173
				c-40.869,0-74,33.131-74,74s33.131,74,74,74s74-33.131,74-74S139.869,173,99,173L99,173z"/>
		</g>
		<g>
			<linearGradient id="SVGID_17_" gradientUnits="userSpaceOnUse" x1="50.1424" y1="198.1423" x2="147.8576" y2="295.8575">
				<stop  offset="0" style="stop-color:#B3B3B3"/>
				<stop  offset="1" style="stop-color:#333333"/>
			</linearGradient>
			<path style="fill:url(#SVGID_17_);" d="M99,316.127c-38.117,0-69.127-31.01-69.127-69.127S60.883,177.873,99,177.873
				s69.127,31.01,69.127,69.127S137.117,316.127,99,316.127z"/>
			<path d="M99,178.373c37.841,0,68.627,30.786,68.627,68.627S136.841,315.627,99,315.627S30.373,284.841,30.373,247
				S61.159,178.373,99,178.373 M99,177.373c-38.454,0-69.627,31.173-69.627,69.627S60.546,316.627,99,316.627
				s69.627-31.173,69.627-69.627S137.454,177.373,99,177.373L99,177.373z"/>
		</g>
		<g>
			<path style="fill:#999999;" d="M99,189.473c31.721,0,57.527,25.807,57.527,57.527S130.721,304.527,99,304.527
				S41.473,278.721,41.473,247S67.279,189.473,99,189.473 M99,188.473c-32.324,0-58.527,26.204-58.527,58.527
				S66.676,305.527,99,305.527s58.527-26.204,58.527-58.527S131.324,188.473,99,188.473L99,188.473z"/>
		</g>
		<g>
			<path style="fill:#666666;" d="M99,190.681c31.055,0,56.319,25.265,56.319,56.319S130.055,303.319,99,303.319
				S42.681,278.055,42.681,247S67.945,190.681,99,190.681 M99,189.681c-31.657,0-57.319,25.663-57.319,57.319
				S67.343,304.319,99,304.319s57.319-25.663,57.319-57.319S130.657,189.681,99,189.681L99,189.681z"/>
		</g>
		<g>
			<path style="fill:#808080;" d="M99,198.218c26.898,0,48.782,21.883,48.782,48.782c0,26.898-21.883,48.782-48.782,48.782
				S50.218,273.898,50.218,247C50.218,220.102,72.102,198.218,99,198.218 M99,197.218c-27.494,0-49.782,22.288-49.782,49.782
				c0,27.494,22.288,49.782,49.782,49.782s49.782-22.288,49.782-49.782C148.782,219.506,126.494,197.218,99,197.218L99,197.218z"/>
		</g>
		<g>
			<path style="fill:#666666;" d="M99,213.018c18.738,0,33.982,15.244,33.982,33.982S117.738,280.982,99,280.982
				S65.018,265.738,65.018,247S80.262,213.018,99,213.018 M99,212.018c-19.32,0-34.982,15.662-34.982,34.982
				S79.68,281.982,99,281.982S133.982,266.32,133.982,247S118.32,212.018,99,212.018L99,212.018z"/>
		</g>
		<g>
			<path style="fill:#666666;" d="M99,220.418c14.657,0,26.582,11.925,26.582,26.582S113.657,273.582,99,273.582
				S72.418,261.657,72.418,247S84.343,220.418,99,220.418 M99,219.418c-15.233,0-27.582,12.349-27.582,27.582
				c0,15.233,12.349,27.582,27.582,27.582s27.582-12.349,27.582-27.582C126.582,231.767,114.233,219.418,99,219.418L99,219.418z"/>
		</g>
	</g>
	<g id="fente_-_copie_5">
		<defs>
			<circle id="SVGID_18_" cx="99" cy="247" r="74"/>
		</defs>
		<clipPath id="SVGID_19_">
			<use xlink:href="#SVGID_18_"  style="overflow:visible;"/>
		</clipPath>
		<g style="clip-path:url(#SVGID_19_);">
			<linearGradient id="SVGID_20_" gradientUnits="userSpaceOnUse" x1="106.9709" y1="254.9709" x2="91.0288" y2="239.0288">
				<stop  offset="0" style="stop-color:#666666"/>
				<stop  offset="1" style="stop-color:#333333"/>
			</linearGradient>
			<polygon style="fill:url(#SVGID_20_);" points="36.029,294.028 146.029,184.029 161.971,199.971 51.971,309.971 			"/>
			<path d="M146.029,184.736l15.235,15.235L51.971,309.264l-15.235-15.235L146.029,184.736 M146.029,183.322L35.322,294.029
				l16.649,16.649l110.706-110.706L146.029,183.322L146.029,183.322z"/>
		</g>
		
			<line style="clip-path:url(#SVGID_19_);fill:none;stroke:#333333;stroke-width:0.5;stroke-miterlimit:10;" x1="149.476" y1="186.77" x2="38.77" y2="297.476"/>
		
			<line style="clip-path:url(#SVGID_19_);fill:none;stroke:#4D4D4D;stroke-width:0.5;stroke-miterlimit:10;" x1="152.84" y1="190.133" x2="42.133" y2="300.84"/>
		
			<line style="clip-path:url(#SVGID_19_);fill:none;stroke:#808080;stroke-width:0.5;stroke-miterlimit:10;" x1="158.894" y1="195.851" x2="48.188" y2="306.558"/>
		
			<line style="clip-path:url(#SVGID_19_);fill:none;stroke:#666666;stroke-width:0.5;stroke-miterlimit:10;" x1="159.567" y1="196.86" x2="48.86" y2="307.567"/>
	</g>
</g>
<g id="vis_complete_5">
	<g id="vis_-_copie_4">
		<g>
			<path style="fill:#CCCCCC;" d="M395,320c-40.252,0-73-32.748-73-73c0-40.252,32.748-73,73-73s73,32.748,73,73
				C468,287.252,435.252,320,395,320z"/>
			<path d="M395,175c39.701,0,72,32.299,72,72s-32.299,72-72,72s-72-32.299-72-72S355.299,175,395,175 M395,173
				c-40.869,0-74,33.131-74,74s33.131,74,74,74s74-33.131,74-74S435.869,173,395,173L395,173z"/>
		</g>
		<g>
			<linearGradient id="SVGID_21_" gradientUnits="userSpaceOnUse" x1="346.1425" y1="198.1424" x2="443.8575" y2="295.8574">
				<stop  offset="0" style="stop-color:#B3B3B3"/>
				<stop  offset="1" style="stop-color:#333333"/>
			</linearGradient>
			<path style="fill:url(#SVGID_21_);" d="M395,316.127c-38.117,0-69.127-31.01-69.127-69.127s31.01-69.127,69.127-69.127
				s69.127,31.01,69.127,69.127S433.117,316.127,395,316.127z"/>
			<path d="M395,178.373c37.841,0,68.627,30.786,68.627,68.627S432.841,315.627,395,315.627S326.373,284.841,326.373,247
				S357.159,178.373,395,178.373 M395,177.373c-38.454,0-69.627,31.173-69.627,69.627s31.173,69.627,69.627,69.627
				c38.454,0,69.627-31.173,69.627-69.627S433.454,177.373,395,177.373L395,177.373z"/>
		</g>
		<g>
			<path style="fill:#999999;" d="M395,189.473c31.721,0,57.527,25.807,57.527,57.527S426.721,304.527,395,304.527
				S337.473,278.721,337.473,247S363.279,189.473,395,189.473 M395,188.473c-32.324,0-58.527,26.204-58.527,58.527
				s26.204,58.527,58.527,58.527s58.527-26.204,58.527-58.527S427.324,188.473,395,188.473L395,188.473z"/>
		</g>
		<g>
			<path style="fill:#666666;" d="M395,190.681c31.055,0,56.319,25.265,56.319,56.319S426.055,303.319,395,303.319
				S338.681,278.055,338.681,247S363.945,190.681,395,190.681 M395,189.681c-31.656,0-57.319,25.663-57.319,57.319
				s25.663,57.319,57.319,57.319c31.657,0,57.319-25.663,57.319-57.319S426.657,189.681,395,189.681L395,189.681z"/>
		</g>
		<g>
			<path style="fill:#808080;" d="M395,198.218c26.898,0,48.782,21.883,48.782,48.782S421.898,295.782,395,295.782
				S346.218,273.898,346.218,247S368.102,198.218,395,198.218 M395,197.218c-27.494,0-49.782,22.288-49.782,49.782
				s22.288,49.782,49.782,49.782c27.494,0,49.782-22.288,49.782-49.782S422.494,197.218,395,197.218L395,197.218z"/>
		</g>
		<g>
			<path style="fill:#666666;" d="M395,213.018c18.738,0,33.982,15.244,33.982,33.982S413.738,280.982,395,280.982
				S361.018,265.738,361.018,247S376.262,213.018,395,213.018 M395,212.018c-19.32,0-34.982,15.662-34.982,34.982
				S375.68,281.982,395,281.982c19.32,0,34.982-15.662,34.982-34.982S414.32,212.018,395,212.018L395,212.018z"/>
		</g>
		<g>
			<path style="fill:#666666;" d="M395,220.418c14.657,0,26.582,11.925,26.582,26.582S409.657,273.582,395,273.582
				c-14.657,0-26.582-11.925-26.582-26.582S380.343,220.418,395,220.418 M395,219.418c-15.233,0-27.582,12.349-27.582,27.582
				s12.349,27.582,27.582,27.582s27.582-12.349,27.582-27.582S410.233,219.418,395,219.418L395,219.418z"/>
		</g>
	</g>
	<g id="fente_-_copie_4">
		<defs>
			<circle id="SVGID_22_" cx="395" cy="247" r="74"/>
		</defs>
		<clipPath id="SVGID_23_">
			<use xlink:href="#SVGID_22_"  style="overflow:visible;"/>
		</clipPath>
		<g style="clip-path:url(#SVGID_23_);">
			<linearGradient id="SVGID_24_" gradientUnits="userSpaceOnUse" x1="402.9713" y1="254.9711" x2="387.0289" y2="239.0287">
				<stop  offset="0" style="stop-color:#666666"/>
				<stop  offset="1" style="stop-color:#333333"/>
			</linearGradient>
			<polygon style="fill:url(#SVGID_24_);" points="332.029,294.028 442.028,184.029 457.971,199.971 347.972,309.971 			"/>
			<path d="M442.029,184.736l15.235,15.235L347.971,309.264l-15.235-15.235L442.029,184.736 M442.029,183.322L331.322,294.029
				l16.649,16.649l110.706-110.706L442.029,183.322L442.029,183.322z"/>
		</g>
		
			<line style="clip-path:url(#SVGID_23_);fill:none;stroke:#333333;stroke-width:0.5;stroke-miterlimit:10;" x1="445.476" y1="186.77" x2="334.77" y2="297.476"/>
		
			<line style="clip-path:url(#SVGID_23_);fill:none;stroke:#4D4D4D;stroke-width:0.5;stroke-miterlimit:10;" x1="448.84" y1="190.133" x2="338.133" y2="300.84"/>
		
			<line style="clip-path:url(#SVGID_23_);fill:none;stroke:#808080;stroke-width:0.5;stroke-miterlimit:10;" x1="454.894" y1="195.851" x2="344.188" y2="306.558"/>
		
			<line style="clip-path:url(#SVGID_23_);fill:none;stroke:#666666;stroke-width:0.5;stroke-miterlimit:10;" x1="455.567" y1="196.86" x2="344.86" y2="307.567"/>
	</g>
</g>
<g id="vis_complete_6">
	<g id="vis_-_copie_8">
		<g>
			<path style="fill:#CCCCCC;" d="M99,468c-40.252,0-73-32.748-73-73s32.748-73,73-73s73,32.748,73,73S139.252,468,99,468z"/>
			<path d="M99,323c39.701,0,72,32.299,72,72s-32.299,72-72,72s-72-32.299-72-72S59.299,323,99,323 M99,321
				c-40.869,0-74,33.131-74,74s33.131,74,74,74s74-33.131,74-74S139.869,321,99,321L99,321z"/>
		</g>
		<g>
			<linearGradient id="SVGID_25_" gradientUnits="userSpaceOnUse" x1="50.1425" y1="346.1425" x2="147.8575" y2="443.8575">
				<stop  offset="0" style="stop-color:#B3B3B3"/>
				<stop  offset="1" style="stop-color:#333333"/>
			</linearGradient>
			<path style="fill:url(#SVGID_25_);" d="M99,464.127c-38.117,0-69.127-31.01-69.127-69.127S60.883,325.873,99,325.873
				s69.127,31.01,69.127,69.127S137.117,464.127,99,464.127z"/>
			<path d="M99,326.373c37.841,0,68.627,30.786,68.627,68.627S136.841,463.627,99,463.627S30.373,432.841,30.373,395
				S61.159,326.373,99,326.373 M99,325.373c-38.454,0-69.627,31.173-69.627,69.627S60.546,464.627,99,464.627
				s69.627-31.173,69.627-69.627S137.454,325.373,99,325.373L99,325.373z"/>
		</g>
		<g>
			<path style="fill:#999999;" d="M99,337.473c31.721,0,57.527,25.807,57.527,57.527S130.721,452.527,99,452.527
				S41.473,426.721,41.473,395S67.279,337.473,99,337.473 M99,336.473c-32.324,0-58.527,26.204-58.527,58.527
				S66.676,453.527,99,453.527s58.527-26.203,58.527-58.527S131.324,336.473,99,336.473L99,336.473z"/>
		</g>
		<g>
			<path style="fill:#666666;" d="M99,338.681c31.055,0,56.319,25.265,56.319,56.319S130.055,451.319,99,451.319
				S42.681,426.055,42.681,395S67.945,338.681,99,338.681 M99,337.681c-31.657,0-57.319,25.663-57.319,57.319
				S67.343,452.319,99,452.319s57.319-25.663,57.319-57.319S130.657,337.681,99,337.681L99,337.681z"/>
		</g>
		<g>
			<path style="fill:#808080;" d="M99,346.218c26.898,0,48.782,21.883,48.782,48.782c0,26.898-21.883,48.782-48.782,48.782
				S50.218,421.898,50.218,395C50.218,368.102,72.102,346.218,99,346.218 M99,345.218c-27.494,0-49.782,22.288-49.782,49.782
				c0,27.494,22.288,49.782,49.782,49.782s49.782-22.288,49.782-49.782C148.782,367.506,126.494,345.218,99,345.218L99,345.218z"/>
		</g>
		<g>
			<path style="fill:#666666;" d="M99,361.018c18.738,0,33.982,15.244,33.982,33.982S117.738,428.982,99,428.982
				S65.018,413.738,65.018,395S80.262,361.018,99,361.018 M99,360.018c-19.32,0-34.982,15.662-34.982,34.982
				c0,19.32,15.662,34.982,34.982,34.982c19.32,0,34.982-15.662,34.982-34.982C133.982,375.68,118.32,360.018,99,360.018L99,360.018
				z"/>
		</g>
		<g>
			<path style="fill:#666666;" d="M99,368.418c14.657,0,26.582,11.925,26.582,26.582c0,14.657-11.925,26.582-26.582,26.582
				S72.418,409.657,72.418,395C72.418,380.343,84.343,368.418,99,368.418 M99,367.418c-15.233,0-27.582,12.349-27.582,27.582
				S83.767,422.582,99,422.582c15.233,0,27.582-12.349,27.582-27.582S114.233,367.418,99,367.418L99,367.418z"/>
		</g>
	</g>
	<g id="fente_-_copie_8">
		<defs>
			<circle id="SVGID_26_" cx="99" cy="395" r="74"/>
		</defs>
		<clipPath id="SVGID_27_">
			<use xlink:href="#SVGID_26_"  style="overflow:visible;"/>
		</clipPath>
		<g style="clip-path:url(#SVGID_27_);">
			<linearGradient id="SVGID_28_" gradientUnits="userSpaceOnUse" x1="106.9712" y1="402.9712" x2="91.0288" y2="387.0288">
				<stop  offset="0" style="stop-color:#666666"/>
				<stop  offset="1" style="stop-color:#333333"/>
			</linearGradient>
			<polygon style="fill:url(#SVGID_28_);" points="36.029,442.028 146.029,332.029 161.971,347.972 51.971,457.971 			"/>
			<path d="M146.029,332.736l15.235,15.235L51.971,457.263l-15.235-15.235L146.029,332.736 M146.029,331.322L35.322,442.029
				l16.649,16.649l110.706-110.706L146.029,331.322L146.029,331.322z"/>
		</g>
		
			<line style="clip-path:url(#SVGID_27_);fill:none;stroke:#333333;stroke-width:0.5;stroke-miterlimit:10;" x1="149.476" y1="334.77" x2="38.77" y2="445.476"/>
		
			<line style="clip-path:url(#SVGID_27_);fill:none;stroke:#4D4D4D;stroke-width:0.5;stroke-miterlimit:10;" x1="152.84" y1="338.133" x2="42.133" y2="448.84"/>
		
			<line style="clip-path:url(#SVGID_27_);fill:none;stroke:#808080;stroke-width:0.5;stroke-miterlimit:10;" x1="158.894" y1="343.851" x2="48.188" y2="454.558"/>
		
			<line style="clip-path:url(#SVGID_27_);fill:none;stroke:#666666;stroke-width:0.5;stroke-miterlimit:10;" x1="159.567" y1="344.86" x2="48.86" y2="455.567"/>
	</g>
</g>
<g id="vis_complete_7">
	<g id="vis_-_copie_7">
		<g>
			<path style="fill:#CCCCCC;" d="M247,468c-40.252,0-73-32.748-73-73s32.748-73,73-73c40.252,0,73,32.748,73,73
				S287.252,468,247,468z"/>
			<path d="M247,323c39.701,0,72,32.299,72,72s-32.299,72-72,72s-72-32.299-72-72S207.299,323,247,323 M247,321
				c-40.869,0-74,33.131-74,74s33.131,74,74,74s74-33.131,74-74S287.869,321,247,321L247,321z"/>
		</g>
		<g>
			<linearGradient id="SVGID_29_" gradientUnits="userSpaceOnUse" x1="198.1424" y1="346.1425" x2="295.8574" y2="443.8575">
				<stop  offset="0" style="stop-color:#B3B3B3"/>
				<stop  offset="1" style="stop-color:#333333"/>
			</linearGradient>
			<path style="fill:url(#SVGID_29_);" d="M247,464.127c-38.117,0-69.127-31.01-69.127-69.127s31.01-69.127,69.127-69.127
				s69.127,31.01,69.127,69.127S285.117,464.127,247,464.127z"/>
			<path d="M247,326.373c37.841,0,68.627,30.786,68.627,68.627S284.841,463.627,247,463.627S178.373,432.841,178.373,395
				S209.159,326.373,247,326.373 M247,325.373c-38.454,0-69.627,31.173-69.627,69.627s31.173,69.627,69.627,69.627
				s69.627-31.173,69.627-69.627S285.454,325.373,247,325.373L247,325.373z"/>
		</g>
		<g>
			<path style="fill:#999999;" d="M247,337.473c31.721,0,57.527,25.807,57.527,57.527S278.721,452.527,247,452.527
				S189.473,426.721,189.473,395S215.279,337.473,247,337.473 M247,336.473c-32.324,0-58.527,26.204-58.527,58.527
				s26.204,58.527,58.527,58.527s58.527-26.204,58.527-58.527S279.324,336.473,247,336.473L247,336.473z"/>
		</g>
		<g>
			<path style="fill:#666666;" d="M247,338.681c31.055,0,56.319,25.265,56.319,56.319S278.055,451.319,247,451.319
				S190.681,426.055,190.681,395S215.945,338.681,247,338.681 M247,337.681c-31.657,0-57.319,25.663-57.319,57.319
				s25.663,57.319,57.319,57.319s57.319-25.663,57.319-57.319S278.657,337.681,247,337.681L247,337.681z"/>
		</g>
		<g>
			<path style="fill:#808080;" d="M247,346.218c26.898,0,48.782,21.883,48.782,48.782c0,26.898-21.883,48.782-48.782,48.782
				c-26.898,0-48.782-21.883-48.782-48.782C198.218,368.102,220.102,346.218,247,346.218 M247,345.218
				c-27.494,0-49.782,22.288-49.782,49.782c0,27.494,22.288,49.782,49.782,49.782c27.494,0,49.782-22.288,49.782-49.782
				C296.782,367.506,274.494,345.218,247,345.218L247,345.218z"/>
		</g>
		<g>
			<path style="fill:#666666;" d="M247,361.018c18.738,0,33.982,15.244,33.982,33.982S265.738,428.982,247,428.982
				c-18.738,0-33.982-15.244-33.982-33.982S228.262,361.018,247,361.018 M247,360.018c-19.32,0-34.982,15.662-34.982,34.982
				c0,19.32,15.662,34.982,34.982,34.982c19.32,0,34.982-15.662,34.982-34.982C281.982,375.68,266.32,360.018,247,360.018
				L247,360.018z"/>
		</g>
		<g>
			<path style="fill:#666666;" d="M247,368.418c14.657,0,26.582,11.925,26.582,26.582c0,14.657-11.925,26.582-26.582,26.582
				c-14.657,0-26.582-11.925-26.582-26.582C220.418,380.343,232.343,368.418,247,368.418 M247,367.418
				c-15.233,0-27.582,12.349-27.582,27.582s12.349,27.582,27.582,27.582s27.582-12.349,27.582-27.582S262.233,367.418,247,367.418
				L247,367.418z"/>
		</g>
	</g>
	<g id="fente_-_copie_7">
		<defs>
			<circle id="SVGID_30_" cx="247" cy="395" r="74"/>
		</defs>
		<clipPath id="SVGID_31_">
			<use xlink:href="#SVGID_30_"  style="overflow:visible;"/>
		</clipPath>
		<g style="clip-path:url(#SVGID_31_);">
			<linearGradient id="SVGID_32_" gradientUnits="userSpaceOnUse" x1="254.9711" y1="402.9713" x2="239.0287" y2="387.0289">
				<stop  offset="0" style="stop-color:#666666"/>
				<stop  offset="1" style="stop-color:#333333"/>
			</linearGradient>
			<polygon style="fill:url(#SVGID_32_);" points="184.029,442.028 294.028,332.029 309.971,347.972 199.971,457.971 			"/>
			<path d="M294.029,332.736l15.235,15.235L199.971,457.263l-15.235-15.235L294.029,332.736 M294.029,331.322L183.322,442.029
				l16.649,16.649l110.706-110.706L294.029,331.322L294.029,331.322z"/>
		</g>
		
			<line style="clip-path:url(#SVGID_31_);fill:none;stroke:#333333;stroke-width:0.5;stroke-miterlimit:10;" x1="297.476" y1="334.77" x2="186.77" y2="445.476"/>
		
			<line style="clip-path:url(#SVGID_31_);fill:none;stroke:#4D4D4D;stroke-width:0.5;stroke-miterlimit:10;" x1="300.84" y1="338.133" x2="190.133" y2="448.84"/>
		
			<line style="clip-path:url(#SVGID_31_);fill:none;stroke:#808080;stroke-width:0.5;stroke-miterlimit:10;" x1="306.894" y1="343.851" x2="196.188" y2="454.558"/>
		
			<line style="clip-path:url(#SVGID_31_);fill:none;stroke:#666666;stroke-width:0.5;stroke-miterlimit:10;" x1="307.567" y1="344.86" x2="196.86" y2="455.567"/>
	</g>
</g>
<g id="vis_complete_8">
	<g id="vis_-_copie_6">
		<g>
			<path style="fill:#CCCCCC;" d="M395,468c-40.252,0-73-32.748-73-73s32.748-73,73-73s73,32.748,73,73S435.252,468,395,468z"/>
			<path d="M395,323c39.701,0,72,32.299,72,72s-32.299,72-72,72s-72-32.299-72-72S355.299,323,395,323 M395,321
				c-40.869,0-74,33.131-74,74c0,40.869,33.131,74,74,74s74-33.131,74-74C469,354.131,435.869,321,395,321L395,321z"/>
		</g>
		<g>
			<linearGradient id="SVGID_33_" gradientUnits="userSpaceOnUse" x1="346.1426" y1="346.1426" x2="443.8574" y2="443.8574">
				<stop  offset="0" style="stop-color:#B3B3B3"/>
				<stop  offset="1" style="stop-color:#333333"/>
			</linearGradient>
			<path style="fill:url(#SVGID_33_);" d="M395,464.127c-38.117,0-69.127-31.01-69.127-69.127s31.01-69.127,69.127-69.127
				s69.127,31.01,69.127,69.127S433.117,464.127,395,464.127z"/>
			<path d="M395,326.373c37.841,0,68.627,30.786,68.627,68.627S432.841,463.627,395,463.627S326.373,432.841,326.373,395
				S357.159,326.373,395,326.373 M395,325.373c-38.454,0-69.627,31.173-69.627,69.627c0,38.454,31.173,69.627,69.627,69.627
				s69.627-31.173,69.627-69.627C464.627,356.546,433.454,325.373,395,325.373L395,325.373z"/>
		</g>
		<g>
			<path style="fill:#999999;" d="M395,337.473c31.721,0,57.527,25.807,57.527,57.527S426.721,452.527,395,452.527
				S337.473,426.721,337.473,395S363.279,337.473,395,337.473 M395,336.473c-32.324,0-58.527,26.204-58.527,58.527
				c0,32.324,26.204,58.527,58.527,58.527s58.527-26.204,58.527-58.527C453.527,362.676,427.324,336.473,395,336.473L395,336.473z"
				/>
		</g>
		<g>
			<path style="fill:#666666;" d="M395,338.681c31.055,0,56.319,25.265,56.319,56.319S426.055,451.319,395,451.319
				S338.681,426.055,338.681,395S363.945,338.681,395,338.681 M395,337.681c-31.657,0-57.319,25.663-57.319,57.319
				c0,31.656,25.663,57.319,57.319,57.319s57.319-25.663,57.319-57.319C452.319,363.343,426.657,337.681,395,337.681L395,337.681z"
				/>
		</g>
		<g>
			<path style="fill:#808080;" d="M395,346.218c26.898,0,48.782,21.883,48.782,48.782c0,26.898-21.883,48.782-48.782,48.782
				S346.218,421.898,346.218,395C346.218,368.102,368.102,346.218,395,346.218 M395,345.218c-27.494,0-49.782,22.288-49.782,49.782
				c0,27.494,22.288,49.782,49.782,49.782s49.782-22.288,49.782-49.782C444.782,367.506,422.494,345.218,395,345.218L395,345.218z"
				/>
		</g>
		<g>
			<path style="fill:#666666;" d="M395,361.018c18.738,0,33.982,15.244,33.982,33.982c0,18.738-15.244,33.982-33.982,33.982
				S361.018,413.738,361.018,395C361.018,376.262,376.262,361.018,395,361.018 M395,360.018c-19.32,0-34.982,15.662-34.982,34.982
				c0,19.32,15.662,34.982,34.982,34.982S429.982,414.32,429.982,395C429.982,375.68,414.32,360.018,395,360.018L395,360.018z"/>
		</g>
		<g>
			<path style="fill:#666666;" d="M395,368.418c14.657,0,26.582,11.925,26.582,26.582c0,14.657-11.925,26.582-26.582,26.582
				c-14.657,0-26.582-11.925-26.582-26.582C368.418,380.343,380.343,368.418,395,368.418 M395,367.418
				c-15.233,0-27.582,12.349-27.582,27.582c0,15.233,12.349,27.582,27.582,27.582s27.582-12.349,27.582-27.582
				C422.582,379.767,410.233,367.418,395,367.418L395,367.418z"/>
		</g>
	</g>
	<g id="fente_-_copie_6">
		<defs>
			<circle id="SVGID_34_" cx="395" cy="395" r="74"/>
		</defs>
		<clipPath id="SVGID_35_">
			<use xlink:href="#SVGID_34_"  style="overflow:visible;"/>
		</clipPath>
		<g style="clip-path:url(#SVGID_35_);">
			<linearGradient id="SVGID_36_" gradientUnits="userSpaceOnUse" x1="402.9712" y1="402.9712" x2="387.0288" y2="387.0288">
				<stop  offset="0" style="stop-color:#666666"/>
				<stop  offset="1" style="stop-color:#333333"/>
			</linearGradient>
			<polygon style="fill:url(#SVGID_36_);" points="332.029,442.028 442.028,332.029 457.971,347.972 347.972,457.971 			"/>
			<path d="M442.029,332.736l15.235,15.235L347.971,457.263l-15.235-15.235L442.029,332.736 M442.029,331.322L331.322,442.029
				l16.649,16.649l110.706-110.706L442.029,331.322L442.029,331.322z"/>
		</g>
		
			<line style="clip-path:url(#SVGID_35_);fill:none;stroke:#333333;stroke-width:0.5;stroke-miterlimit:10;" x1="445.476" y1="334.77" x2="334.77" y2="445.476"/>
		
			<line style="clip-path:url(#SVGID_35_);fill:none;stroke:#4D4D4D;stroke-width:0.5;stroke-miterlimit:10;" x1="448.84" y1="338.133" x2="338.133" y2="448.84"/>
		
			<line style="clip-path:url(#SVGID_35_);fill:none;stroke:#808080;stroke-width:0.5;stroke-miterlimit:10;" x1="454.894" y1="343.851" x2="344.188" y2="454.558"/>
		
			<line style="clip-path:url(#SVGID_35_);fill:none;stroke:#666666;stroke-width:0.5;stroke-miterlimit:10;" x1="455.567" y1="344.86" x2="344.86" y2="455.567"/>
	</g>
</g>
</svg>
